<?xml version="1.0" encoding="UTF-8"?>
<svg version="1.1" xmlns="http://www.w3.org/2000/svg" width="400" height="300">
<path d="M0 0 C132 0 264 0 400 0 C400 99 400 198 400 300 C268 300 136 300 0 300 C0 201 0 102 0 0 Z " fill="#030217" transform="translate(0,0)"/>
<path d="M0 0 C0.85529297 -0.00773437 1.71058594 -0.01546875 2.59179688 -0.0234375 C18.75059314 0.0258647 31.65085013 7.19383796 43.3125 18 C54.52888007 29.7909897 58.67592037 44.10839006 58.46508789 60.0078125 C57.95137046 75.28253825 51.78958085 89.26354241 41.0625 100.25 C28.33905745 111.1040312 16.06620457 115.54961828 -0.46289062 115.640625 C-1.36587891 115.66382813 -2.26886719 115.68703125 -3.19921875 115.7109375 C-4.01350342 115.71915527 -4.82778809 115.72737305 -5.66674805 115.73583984 C-9.87664725 116.68907581 -11.59355122 119.7243449 -13.8659668 123.19726562 C-14.54567377 124.34666147 -15.21890026 125.49990626 -15.88671875 126.65625 C-16.25693649 127.28539307 -16.62715424 127.91453613 -17.0085907 128.56274414 C-17.80486322 129.91717191 -18.59844615 131.27318383 -19.3895874 132.63061523 C-21.49359349 136.24009636 -23.6175017 139.83785809 -25.73828125 143.4375 C-26.38573303 144.53837952 -26.38573303 144.53837952 -27.04626465 145.66149902 C-31.40401976 153.06354044 -35.84703966 160.41257758 -40.3125 167.75 C-40.84041641 168.61878784 -40.84041641 168.61878784 -41.3789978 169.50512695 C-45.19150866 175.77914864 -49.03020796 182.0345393 -52.9375 188.25 C-54.2575 187.92 -55.5775 187.59 -56.9375 187.25 C-57.00777667 169.74234288 -57.06057916 152.23473018 -57.09293652 134.726964 C-57.10836413 126.59665506 -57.12937449 118.46643409 -57.16381836 110.33618164 C-57.19384714 103.24466456 -57.21310479 96.15321123 -57.21976548 89.06163234 C-57.22365507 85.31138662 -57.23270898 81.56132318 -57.25469017 77.81113625 C-57.27526913 74.27102264 -57.28129132 70.73116392 -57.27682304 67.19099617 C-57.27802356 65.29336393 -57.29405243 63.39575853 -57.3107605 61.49819946 C-57.24683976 43.48449281 -51.62036115 28.23245629 -38.9375 15.25 C-27.6761299 5.4734624 -14.93026877 -0.13440602 0 0 Z " fill="#05CAD5" transform="translate(263.9375,66.75)"/>
<path d="M0 0 C12.64780945 8.97777426 20.25007165 22.52579417 23.54638672 37.47851562 C24.19346848 42.50193181 24.14213596 47.47533474 24.1328125 52.53515625 C24.13479141 54.23894691 24.13479141 54.23894691 24.1368103 55.97715759 C24.13872575 59.67229951 24.13239361 63.36736579 24.125 67.0625 C24.12367065 68.93941528 24.12367065 68.93941528 24.12231445 70.85424805 C24.10475949 91.91614941 23.77043174 112.95246056 23 134 C20.67919922 134.16235352 20.67919922 134.16235352 18 134 C15.82204665 132.02678613 14.01075375 130.15914325 12.125 127.9375 C11.06228538 126.73341434 9.998491 125.53028076 8.93359375 124.328125 C8.42683105 123.74869141 7.92006836 123.16925781 7.39794922 122.57226562 C5.73282722 120.69951228 3.98551242 118.93250978 2.1875 117.1875 C-0.88074424 114.18677213 -3.66072893 110.98291817 -6.421875 107.69921875 C-9.01023349 104.91224859 -10.55164901 104.02490839 -14.375 103.8125 C-17.81640241 103.89879422 -17.81640241 103.89879422 -20.40576172 104.49682617 C-31.96875728 106.73956416 -46.54267854 106.65495753 -57 101 C-57.95003906 100.52949219 -58.90007812 100.05898437 -59.87890625 99.57421875 C-75.09071712 91.73537613 -84.39890972 79.15965841 -89.875 63.0625 C-93.8538104 46.52407124 -91.33773666 30.70057477 -82.75 16.1875 C-73.62113983 2.78932376 -61.00205949 -5.99070133 -45.19287109 -9.60888672 C-28.91200952 -12.51268768 -13.84006242 -8.81702818 0 0 Z " fill="#8551FB" transform="translate(169,77)"/>
<path d="M0 0 C8.23494745 6.72999812 14.77573462 14.65719965 16.8125 25.3125 C17.66540656 37.72858244 16.87422322 49.44313372 8.56640625 59.4375 C1.34584007 67.1565908 -5.71388413 72.13642379 -16.1875 74.3125 C-17.87503124 74.33643176 -19.56380991 74.30577112 -21.25 74.234375 C-22.21164062 74.20859375 -23.17328125 74.1828125 -24.1640625 74.15625 C-26.18023196 74.09373312 -28.19597735 74.01559408 -30.2109375 73.921875 C-31.65339844 73.8909375 -31.65339844 73.8909375 -33.125 73.859375 C-34.43791016 73.81055176 -34.43791016 73.81055176 -35.77734375 73.76074219 C-39.29992945 74.56716882 -40.21439759 76.35450018 -42.1875 79.3125 C-43.34834896 81.24338716 -44.46480179 83.20144295 -45.54296875 85.1796875 C-46.16139648 86.30656982 -46.77982422 87.43345215 -47.41699219 88.59448242 C-47.7371228 89.18232513 -48.05725342 89.77016785 -48.38708496 90.37582397 C-50.04590984 93.41783988 -51.72489128 96.44869703 -53.40234375 99.48046875 C-53.73037994 100.07392593 -54.05841614 100.66738312 -54.39639282 101.27882385 C-57.03321781 106.045054 -59.68778628 110.79790056 -62.4375 115.5 C-62.78321045 116.11020996 -63.1289209 116.72041992 -63.48510742 117.34912109 C-64.453125 118.98046875 -64.453125 118.98046875 -66.1875 121.3125 C-67.1775 121.3125 -68.1675 121.3125 -69.1875 121.3125 C-68.69740306 102.93792627 -67.5504526 84.62389275 -66.29174805 66.28857422 C-66.1631262 64.39551613 -66.03462605 62.50244977 -65.90625 60.609375 C-65.84206375 59.68073639 -65.7778775 58.75209778 -65.71174622 57.7953186 C-65.38933706 52.97927142 -65.1323816 48.17019298 -64.9765625 43.34570312 C-64.92586609 41.87946503 -64.92586609 41.87946503 -64.87414551 40.38360596 C-64.81447737 38.54146005 -64.76561792 36.69891461 -64.73034668 34.85614014 C-64.34232913 23.03741915 -60.28903848 13.03431936 -52.3046875 4.23828125 C-38.05913495 -9.05564532 -16.13210607 -11.20198468 0 0 Z " fill="#030317" transform="translate(288.1875,90.6875)"/>
<path d="M0 0 C1.36125 1.0209375 1.36125 1.0209375 2.75 2.0625 C3.719375 2.743125 4.68875 3.42375 5.6875 4.125 C14.51004579 11.62067215 17.80291425 22.16813402 18.78515625 33.23828125 C18.91053017 34.56341988 18.91053017 34.56341988 19.03843689 35.91532898 C19.21394355 37.78512025 19.38603694 39.65523466 19.55493164 41.52563477 C19.808288 44.32840445 20.07209454 47.13002628 20.33789062 49.93164062 C21.71102431 64.60437143 23.03673194 79.31173448 22.75 94.0625 C18.96905568 92.80218523 18.00856275 91.17960652 15.5625 88.0625 C12.54680015 84.28794757 9.50660521 80.56292598 6.3125 76.9375 C5.67441406 76.21304688 5.03632813 75.48859375 4.37890625 74.7421875 C2.24895016 72.54582991 1.18555845 72.10398176 -1.875 71.8125 C-5.38370813 71.89845064 -5.38370813 71.89845064 -8.90625 73.55078125 C-13.36759594 75.27408747 -17.37499025 75.56511741 -22.125 75.5 C-22.91656494 75.49097656 -23.70812988 75.48195313 -24.52368164 75.47265625 C-30.7967968 75.28722495 -35.80659468 74.33039469 -41.25 71.0625 C-42.63445312 70.24072266 -42.63445312 70.24072266 -44.046875 69.40234375 C-53.3261241 63.29559468 -59.27984974 54.76237463 -62.25 44.0625 C-62.66254185 41.11031025 -62.72790632 38.22788166 -62.6875 35.25 C-62.67992676 34.46318848 -62.67235352 33.67637695 -62.66455078 32.86572266 C-62.34252512 21.42088378 -58.11937891 12.99721523 -50.14453125 4.93359375 C-35.87029488 -8.40704368 -16.71494457 -9.96467849 0 0 Z " fill="#030317" transform="translate(157.25,89.9375)"/>
<path d="M0 0 C8.09258978 5.74435 14.56156112 14.12312223 19 23 C19.23188406 30.30434783 19.23188406 30.30434783 18 34 C16.27870503 35.62004233 14.45074522 37.03875786 12.59375 38.5 C10.73155509 40.01516837 10.73155509 40.01516837 10 43 C9.01 43 8.02 43 7 43 C6.67 44.32 6.34 45.64 6 47 C5.87044922 45.76636719 5.87044922 45.76636719 5.73828125 44.5078125 C4.34933843 33.47272547 1.07549922 23.59850634 -7.96484375 16.4453125 C-10.25074099 14.83032007 -12.57310774 13.39350588 -15 12 C-16.07507813 11.37351562 -16.07507813 11.37351562 -17.171875 10.734375 C-25.83384247 6.49299783 -36.81189781 6.61274283 -46.1015625 8.6953125 C-56.29773101 12.45179563 -65.32159044 20.33126376 -70.3125 30 C-73.02333283 36.59674771 -73.34375606 43.96264722 -74 51 C-74.33 51 -74.66 51 -75 51 C-75.185625 49.9275 -75.37125 48.855 -75.5625 47.75 C-76.21673739 45.39379722 -76.6257409 44.28668616 -78.5859375 42.78515625 C-80.38260239 41.84133862 -82.19116744 40.92028323 -84 40 C-85.04115841 38.69855198 -86.05377841 37.37202131 -87 36 C-87.99 35.67 -88.98 35.34 -90 35 C-87.00711543 19.44323542 -77.78753503 7.21424599 -64.9375 -1.75 C-44.1157921 -14.15626762 -20.24464768 -12.89716937 0 0 Z " fill="#05CBD6" transform="translate(169,77)"/>
<path d="M0 0 C2 2 2 2 2 5 C2.61875 5.12375 3.2375 5.2475 3.875 5.375 C6 6 6 6 8 8 C8.680625 8.165 9.36125 8.33 10.0625 8.5 C10.701875 8.665 11.34125 8.83 12 9 C12.33 9.66 12.66 10.32 13 11 C13.99 11.33 14.98 11.66 16 12 C15.51824794 26.71693805 14.77823048 41.39160637 13.66064453 56.07495117 C13.16693769 62.73346055 12.87135706 69.32295471 13 76 C15.79278452 73.51583651 17.3864611 70.78245277 19.1796875 67.51953125 C19.77910156 66.43736328 20.37851563 65.35519531 20.99609375 64.24023438 C21.61613281 63.10908203 22.23617187 61.97792969 22.875 60.8125 C25.23255256 56.53168088 27.6014113 52.25797888 30 48 C30.47622803 47.1529248 30.95245605 46.30584961 31.44311523 45.43310547 C32.54030278 43.56716276 33.7585303 41.77322184 35 40 C38.3125 39.5 38.3125 39.5 41 40 C41.73001583 41.3846168 42.43324582 42.78337645 43.125 44.1875 C43.71667969 45.35345703 43.71667969 45.35345703 44.3203125 46.54296875 C45.4232746 50.53011337 43.39714949 53.27117926 41.48217773 56.78540039 C40.88864502 57.79594482 40.2951123 58.80648926 39.68359375 59.84765625 C39.19074638 60.68916229 39.19074638 60.68916229 38.6879425 61.54766846 C37.60822777 63.388189 36.52312272 65.22545897 35.4375 67.0625 C34.68060658 68.3485176 33.92377152 69.63456956 33.16699219 70.9206543 C23.64881583 87.0666374 13.97365974 103.13105689 4 119 C2.68 118.67 1.36 118.34 0 118 C0 79.06 0 40.12 0 0 Z " fill="#DEC255" transform="translate(207,136)"/>
<path d="M0 0 C0.66 0 1.32 0 2 0 C2 2.31 2 4.62 2 7 C2.99 7 3.98 7 5 7 C4.5359375 8.36125 4.5359375 8.36125 4.0625 9.75 C3.00905898 12.77652822 3.00905898 12.77652822 2.5625 15.0625 C1.81058952 17.65241387 0.39097985 19.70185937 -1 22 C-1 22.66 -1 23.32 -1 24 C-0.55269531 23.60167969 -0.10539062 23.20335937 0.35546875 22.79296875 C9.24817518 15 9.24817518 15 14 15 C14.33 12.69 14.66 10.38 15 8 C15.33 8 15.66 8 16 8 C16.79626182 21.86085388 11.78111798 32.89446146 3.25 43.75 C-5.85378755 53.67700238 -19.51222818 61.70128147 -33.1015625 62.34375 C-35.87998684 62.43504109 -38.65836363 62.50078775 -41.4375 62.56640625 C-47.93215324 62.77140303 -47.93215324 62.77140303 -54 65 C-57 59.375 -57 59.375 -57 56 C-58.65 56 -60.3 56 -62 56 C-60.75719637 51.25474979 -59.0966625 46.91367215 -55 44 C-51.45024633 43.34905321 -48.02368942 43.63118487 -44.4375 43.875 C-32.09807811 44.28853302 -22.30231259 42.67947956 -13 34 C-2.82189531 24.30258609 -1.26264506 13.39068315 0 0 Z " fill="#656EFC" transform="translate(305,120)"/>
<path d="M0 0 C4.25483003 0.30391643 6.15560853 3.08623313 9 6 C9.83789062 6.39574219 10.67578125 6.79148437 11.5390625 7.19921875 C14.95042553 9.69547011 15.21907603 12.49192108 15.9375 16.4375 C18.99070014 30.57517896 25.01814629 39.87711309 37 48 C37.71800781 48.33515625 38.43601563 48.6703125 39.17578125 49.015625 C41.77926552 50.42050302 42.02864093 52.29407117 43 55 C43.99 55.495 43.99 55.495 45 56 C45.70626239 57.98636298 46.36893571 59.98848259 47 62 C47.5878125 63.051875 47.5878125 63.051875 48.1875 64.125 C49.20610263 66.47562146 48.84518292 67.63348782 48 70 C35.42138841 68.90620769 22.58245092 62.00098826 13.97265625 52.84375 C1.19541553 37.16615403 -2.71941132 20.91911966 -1 1 C-0.67 0.67 -0.34 0.34 0 0 Z " fill="#F381BA" transform="translate(79,112)"/>
<path d="M0 0 C8.76885768 5.54129587 15.94446359 15.73147687 22 24 C18.25 27 18.25 27 16 27 C15.34 28.32 14.68 29.64 14 31 C11 31 11 31 8.80859375 28.84765625 C8.02613281 27.92855469 7.24367187 27.00945312 6.4375 26.0625 C3.61074459 22.53669628 3.61074459 22.53669628 0 20 C-3.13404641 19.8817341 -6.05287437 19.77457711 -9.1171875 20.50390625 C-13.3483434 21.23203199 -17.52846334 21.10403056 -21.8125 21.0625 C-22.69615234 21.05798828 -23.57980469 21.05347656 -24.49023438 21.04882812 C-26.66018559 21.03709866 -28.83010172 21.01916495 -31 21 C-31.12375 19.88625 -31.2475 18.7725 -31.375 17.625 C-31.6465813 13.96896323 -31.6465813 13.96896323 -34 12 C-34.125 9.375 -34.125 9.375 -34 7 C-35.32 6.34 -36.64 5.68 -38 5 C-38 4.01 -38 3.02 -38 2 C-37.19304687 2.15984375 -36.38609375 2.3196875 -35.5546875 2.484375 C-31.38243289 3.08958116 -27.33465952 3.22188875 -23.125 3.25 C-21.97837891 3.2809375 -21.97837891 3.2809375 -20.80859375 3.3125 C-13.61578281 3.36134761 -6.76713047 -1.40981885 0 0 Z " fill="#B739F7" transform="translate(158,161)"/>
<path d="M0 0 C0.33 0 0.66 0 1 0 C1.33 3.3 1.66 6.6 2 10 C3.32 10.33 4.64 10.66 6 11 C7.625 13.5 7.625 13.5 9 16 C9.66 16.33 10.32 16.66 11 17 C10.8453125 17.76570313 10.690625 18.53140625 10.53125 19.3203125 C9.83147515 24.16728242 9.67675644 28.9847384 9.5 33.875 C9.26555523 40.3092065 8.90462441 46.62239791 8 53 C6.68 52.67 5.36 52.34 4 52 C4 51.34 4 50.68 4 50 C3.278125 49.896875 2.55625 49.79375 1.8125 49.6875 C-1.35420826 48.91341576 -3.39935618 47.96805478 -6 46 C-8.34806351 41.66260491 -8.34748301 37.31852944 -8.3125 32.5 C-8.30512817 31.30503906 -8.30512817 31.30503906 -8.29760742 30.0859375 C-8.08086916 19.02450579 -5.49027505 9.61340651 0 0 Z " fill="#28DFE2" transform="translate(215,95)"/>
<path d="M0 0 C2 2 2 2 2 5 C2.61875 5.12375 3.2375 5.2475 3.875 5.375 C6 6 6 6 8 8 C8.680625 8.165 9.36125 8.33 10.0625 8.5 C10.701875 8.665 11.34125 8.83 12 9 C12.33 9.66 12.66 10.32 13 11 C13.99 11.33 14.98 11.66 16 12 C15.67 17.94 15.34 23.88 15 30 C14.67 30 14.34 30 14 30 C13.67 27.69 13.34 25.38 13 23 C12.66226563 23.62648437 12.32453125 24.25296875 11.9765625 24.8984375 C11.53054687 25.71570313 11.08453125 26.53296875 10.625 27.375 C10.18414062 28.18710938 9.74328125 28.99921875 9.2890625 29.8359375 C8 32 8 32 6 34 C5.77908732 36.48113493 5.67483761 38.85967872 5.65625 41.34375 C5.6416272 42.06864624 5.62700439 42.79354248 5.61193848 43.54040527 C5.56537001 45.86021428 5.53120301 48.17993639 5.5 50.5 C5.45894758 53.55240505 5.40531683 56.60419756 5.34375 59.65625 C5.3384729 60.36148804 5.3331958 61.06672607 5.32775879 61.79333496 C5.22560362 66.77439638 5.22560362 66.77439638 3 69 C1.42286164 77.340767 1.70504876 86.22681875 1.4375 94.6875 C1.39431641 95.97333984 1.35113281 97.25917969 1.30664062 98.58398438 C1.20163202 101.72257494 1.09947595 104.86123004 1 108 C0.67 108 0.34 108 0 108 C0 72.36 0 36.72 0 0 Z " fill="#ECB580" transform="translate(207,136)"/>
<path d="M0 0 C0.33 0 0.66 0 1 0 C1.12910853 6.74233419 0.797837 13.30386804 0 20 C0.639375 19.855625 1.27875 19.71125 1.9375 19.5625 C5.93844788 18.82763202 9.95504896 18.41418889 14 18 C12.68898089 22.36898234 10.98658065 26.01452677 8.62890625 29.9140625 C7.64374023 31.54988281 7.64374023 31.54988281 6.63867188 33.21875 C5.95353516 34.3428125 5.26839844 35.466875 4.5625 36.625 C3.87385581 37.76793218 3.18570043 38.91115903 2.49804688 40.0546875 C-2.99574083 49.13746286 -2.99574083 49.13746286 -6 53 C-7.32 52.67 -8.64 52.34 -10 52 C-9.90637603 46.66115037 -9.800262 41.32274944 -9.68261719 35.984375 C-9.64435809 34.16868879 -9.60949983 32.35292759 -9.578125 30.53710938 C-9.5324077 27.92550877 -9.47442464 25.31442312 -9.4140625 22.703125 C-9.40251129 21.89256653 -9.39096008 21.08200806 -9.37905884 20.24688721 C-9.27752326 16.36074547 -9.15281916 13.30461331 -7 10 C-6.731875 9.38125 -6.46375 8.7625 -6.1875 8.125 C-4.47602928 5.06236819 -2.32798829 2.62644833 0 0 Z " fill="#9DDA49" transform="translate(217,202)"/>
<path d="M0 0 C3.13728813 1.96992511 5.69368633 3.67666891 8.25 6.375 C11.46874637 9.44743972 14.87477856 11.30722946 18.79296875 13.375 C21.44720502 15.32926954 21.93844628 16.94111536 23 20 C23.66 20.33 24.32 20.66 25 21 C25.70626239 22.98636298 26.36893571 24.98848259 27 27 C27.391875 27.70125 27.78375 28.4025 28.1875 29.125 C29.20610263 31.47562146 28.84518292 32.63348782 28 35 C17.71410162 34.10557405 6.35506864 29.35506864 -1 22 C-1.24291992 19.86108398 -1.24291992 19.86108398 -1.23046875 17.24609375 C-1.22853516 16.30958984 -1.22660156 15.37308594 -1.22460938 14.40820312 C-1.21236328 13.42787109 -1.20011719 12.44753906 -1.1875 11.4375 C-1.18685547 10.45330078 -1.18621094 9.46910156 -1.18554688 8.45507812 C-1.14017532 1.14017532 -1.14017532 1.14017532 0 0 Z " fill="#CED607" transform="translate(99,147)"/>
<path d="M0 0 C0.99 4.95 1.98 9.9 3 15 C3.99 15.33 4.98 15.66 6 16 C4.74711689 19.31201971 3.27894221 22.25901079 1.5 25.3125 C-2.01013942 32.13604536 -2.37391159 39.46824989 -3 47 C-3.33 47 -3.66 47 -4 47 C-4.185625 45.9275 -4.37125 44.855 -4.5625 43.75 C-5.21673739 41.39379722 -5.6257409 40.28668616 -7.5859375 38.78515625 C-9.38260239 37.84133862 -11.19116744 36.92028323 -13 36 C-14.04115841 34.69855198 -15.05377841 33.37202131 -16 32 C-16.99 31.67 -17.98 31.34 -19 31 C-17.57959162 23.61683562 -9.82664045 0 0 0 Z " fill="#78D8B7" transform="translate(98,81)"/>
<path d="M0 0 C1.32 0 2.64 0 4 0 C4 11.55 4 23.1 4 35 C-1 35 -1 35 -2.60571289 33.87011719 C-3.0568042 33.35094727 -3.50789551 32.83177734 -3.97265625 32.296875 C-4.47990234 31.72839844 -4.98714844 31.15992188 -5.50976562 30.57421875 C-6.02216797 29.97222656 -6.53457031 29.37023437 -7.0625 28.75 C-8.09446368 27.57760681 -9.12700334 26.40572033 -10.16015625 25.234375 C-10.64371582 24.67814453 -11.12727539 24.12191406 -11.62548828 23.54882812 C-13.3392333 21.61774493 -15.14606055 19.79614278 -17 18 C-15.57297355 14.447615 -14.03100052 13.14717717 -10.75 11.25 C-6.49105283 8.5838854 -4.03075541 5.77904922 -1.38671875 1.5390625 C-0.92910156 1.03117188 -0.47148437 0.52328125 0 0 Z " fill="#21CFBB" transform="translate(188,176)"/>
<path d="M0 0 C2.61814517 0.25739062 5.14825355 0.68746438 7.73046875 1.1875 C9.27076698 1.38592811 10.81238011 1.57458673 12.35546875 1.75 C13.46921875 1.894375 14.58296875 2.03875 15.73046875 2.1875 C14.41046875 2.5175 13.09046875 2.8475 11.73046875 3.1875 C11.99829818 6.69606551 12.4423094 9.90011734 13.73046875 13.1875 C16.19333913 15.1879539 18.71554599 16.24796593 21.73046875 17.1875 C21.73046875 17.5175 21.73046875 17.8475 21.73046875 18.1875 C20.48910156 18.23648438 19.24773437 18.28546875 17.96875 18.3359375 C16.32680181 18.41099799 14.68487578 18.48654439 13.04296875 18.5625 C12.22634766 18.5934375 11.40972656 18.624375 10.56835938 18.65625 C6.22920242 18.86705924 2.68763418 19.20488759 -1.26953125 21.1875 C-4.26953125 15.5625 -4.26953125 15.5625 -4.26953125 12.1875 C-5.91953125 12.1875 -7.56953125 12.1875 -9.26953125 12.1875 C-7.94514982 7.13077092 -6.02853354 0.49805441 0 0 Z " fill="#BB8EFA" transform="translate(252.26953125,163.8125)"/>
<path d="M0 0 C1.2065625 1.2375 1.2065625 1.2375 2.4375 2.5 C4.52263018 5.11638731 4.52263018 5.11638731 6 5 C6.66 7.31 7.32 9.62 8 12 C8.66 12 9.32 12 10 12 C13.22265625 17.2734375 13.22265625 17.2734375 14 19 C13.67 19.66 13.34 20.32 13 21 C12.34 20.67 11.68 20.34 11 20 C10.67 26.6 10.34 33.2 10 40 C4.24981111 38.08327037 0.54284075 31.67112318 -2.41015625 26.55859375 C-3.32299844 24.72963754 -4.16981069 22.86792596 -5 21 C-4.01 20.34 -3.02 19.68 -2 19 C-1.40284698 16.98264618 -1.40284698 16.98264618 -1.26953125 14.6484375 C-1.18896484 13.79765625 -1.10839844 12.946875 -1.02539062 12.0703125 C-0.95513672 11.18085938 -0.88488281 10.29140625 -0.8125 9.375 C-0.73064453 8.4778125 -0.64878906 7.580625 -0.56445312 6.65625 C-0.36389309 4.43829201 -0.17629573 2.21999687 0 0 Z " fill="#F59C9B" transform="translate(88,128)"/>
<path d="M0 0 C1.30130859 0.29003906 1.30130859 0.29003906 2.62890625 0.5859375 C3.35892208 1.9705543 4.06215207 3.36931395 4.75390625 4.7734375 C5.14835937 5.55074219 5.5428125 6.32804688 5.94921875 7.12890625 C7.06419075 11.15946594 5.00093985 13.92199625 3.02490234 17.44848633 C2.40695801 18.46966553 1.78901367 19.49084473 1.15234375 20.54296875 C0.48203125 21.65478516 -0.18828125 22.76660156 -0.87890625 23.91210938 C-1.58455497 25.0742676 -2.29028515 26.23637637 -2.99609375 27.3984375 C-3.7099754 28.57987276 -4.42352054 29.76151142 -5.13671875 30.94335938 C-6.8782117 33.82623621 -8.62310757 36.70699474 -10.37109375 39.5859375 C-11.6165578 37.09500939 -11.14785155 36.17513017 -10.37109375 33.5859375 C-9.71109375 33.5859375 -9.05109375 33.5859375 -8.37109375 33.5859375 C-9.03109375 27.9759375 -9.69109375 22.3659375 -10.37109375 16.5859375 C-11.85609375 19.0609375 -11.85609375 19.0609375 -13.37109375 21.5859375 C-13.70109375 20.9259375 -14.03109375 20.2659375 -14.37109375 19.5859375 C-13.00338077 16.22022138 -11.10297238 13.11538656 -9.30859375 9.9609375 C-8.82970703 9.06375 -8.35082031 8.1665625 -7.85742188 7.2421875 C-4.15664318 0.72247564 -4.15664318 0.72247564 0 0 Z " fill="#BDD450" transform="translate(245.37109375,175.4140625)"/>
<path d="M0 0 C0.33 0 0.66 0 1 0 C2.32594359 5.96674616 2.0884587 11.92583615 2 18 C1.34 18 0.68 18 0 18 C-0.0825 19.2375 -0.165 20.475 -0.25 21.75 C-0.62989037 24.61184082 -0.97151966 25.95557068 -2.5625 28.4375 C-7.28318564 31.46358054 -12.53225984 31 -18 31 C-18 27.7 -18 24.4 -18 21 C-16.89011719 20.96519531 -16.89011719 20.96519531 -15.7578125 20.9296875 C-11.75605669 19.58065367 -10.6781344 16.69563373 -8.875 13.125 C-4.97611125 5.67345587 -4.97611125 5.67345587 -2 3 C-1.34 2.01 -0.68 1.02 0 0 Z " fill="#BADC08" transform="translate(235,191)"/>
<path d="M0 0 C0.79664062 0.15339844 1.59328125 0.30679688 2.4140625 0.46484375 C6.73447415 1.10961107 11.01537398 1.35042888 15.375 1.5625 C16.62216797 1.62727539 16.62216797 1.62727539 17.89453125 1.69335938 C19.92953228 1.79861805 21.96474703 1.89973072 24 2 C21 4 21 4 19 5 C19.4640625 5.86625 19.4640625 5.86625 19.9375 6.75 C21 9 21 9 21.375 11.125 C21.84540342 13.21059622 21.84540342 13.21059622 24.0625 14.25 C25.0215625 14.62125 25.0215625 14.62125 26 15 C26 15.66 26 16.32 26 17 C26.99 17.33 27.98 17.66 29 18 C26.17588235 18.94137255 24.47081968 19.11725382 21.55078125 19.09765625 C20.70322266 19.09443359 19.85566406 19.09121094 18.98242188 19.08789062 C18.10134766 19.07951172 17.22027344 19.07113281 16.3125 19.0625 C15.41982422 19.05798828 14.52714844 19.05347656 13.60742188 19.04882812 C11.40488013 19.03704983 9.20247401 19.02060164 7 19 C6.87625 17.88625 6.7525 16.7725 6.625 15.625 C6.3534187 11.96896323 6.3534187 11.96896323 4 10 C3.875 7.375 3.875 7.375 4 5 C2.68 4.34 1.36 3.68 0 3 C0 2.01 0 1.02 0 0 Z " fill="#E960CE" transform="translate(120,163)"/>
<path d="M0 0 C0.66 0 1.32 0 2 0 C2 2.31 2 4.62 2 7 C2.99 7 3.98 7 5 7 C4.690625 7.9075 4.38125 8.815 4.0625 9.75 C3.00905898 12.77652822 3.00905898 12.77652822 2.5625 15.0625 C1.81058952 17.65241387 0.39097985 19.70185937 -1 22 C-1 22.66 -1 23.32 -1 24 C-0.55269531 23.60167969 -0.10539062 23.20335937 0.35546875 22.79296875 C9.24817518 15 9.24817518 15 14 15 C14.33 12.69 14.66 10.38 15 8 C15.33 8 15.66 8 16 8 C16.21540763 20.32610322 16.21540763 20.32610322 15 23 C11.8125 24.5625 11.8125 24.5625 9.90625 25.24609375 C7.69053736 26.04530239 7.69053736 26.04530239 4.8125 28.125 C2.28180939 29.81212707 0.88922128 30.44079588 -2 31 C-6.68691968 32.23339992 -8.66365543 34.69866554 -11.47265625 38.44140625 C-13.2766502 40.28231056 -14.53242838 40.46134091 -17 41 C-17.33 41.66 -17.66 42.32 -18 43 C-19.65 42.67 -21.3 42.34 -23 42 C-22.34 41.484375 -21.68 40.96875 -21 40.4375 C-20.01 39.633125 -19.02 38.82875 -18 38 C-17.37222656 37.50242188 -16.74445313 37.00484375 -16.09765625 36.4921875 C-7.01940213 28.99957853 -2.01729791 20.42761506 -0.6015625 8.69921875 C-0.34942169 5.79959941 -0.14483846 2.90675813 0 0 Z " fill="#179DDB" transform="translate(305,120)"/>
<path d="M0 0 C0 0.99 0 1.98 0 3 C0.54527344 3.10957031 1.09054688 3.21914062 1.65234375 3.33203125 C5.80709127 4.20559355 9.92574381 5.17822812 14 6.375 C15.11375 6.69597656 15.11375 6.69597656 16.25 7.0234375 C16.8275 7.34570312 17.405 7.66796875 18 8 C18.36548445 9.32488113 18.700726 10.65861118 19 12 C19.99 12.33 20.98 12.66 22 13 C22.33 15.31 22.66 17.62 23 20 C21.23046875 20.71484375 21.23046875 20.71484375 19 21 C17.17578125 19.56640625 17.17578125 19.56640625 15.3125 17.5625 C12.2169483 14.63505878 10.48388528 13.52003945 6.1875 13.625 C5.45917969 13.69976562 4.73085937 13.77453125 3.98046875 13.8515625 C2 14 2 14 -1 13 C-4.03505219 10.34432934 -6.19512535 7.60974931 -8 4 C-8 2.68 -8 1.36 -8 0 C-5.13822943 -1.43088528 -3.06624227 -0.59991697 0 0 Z " fill="#D70FED" transform="translate(147,167)"/>
<path d="M0 0 C0.98391351 2.58318926 1.13371176 3.67110509 0.07543945 6.27416992 C-0.64832886 7.49003784 -0.64832886 7.49003784 -1.38671875 8.73046875 C-1.91330078 9.61541016 -2.43988281 10.50035156 -2.98242188 11.41210938 C-3.54509766 12.32798828 -4.10777344 13.24386719 -4.6875 14.1875 C-5.23083984 15.11498047 -5.77417969 16.04246094 -6.33398438 16.99804688 C-6.86701172 17.87912109 -7.40003906 18.76019531 -7.94921875 19.66796875 C-8.43737061 20.47516357 -8.92552246 21.2823584 -9.4284668 22.11401367 C-11 24 -11 24 -13.12817383 24.83325195 C-13.74587646 24.88827881 -14.3635791 24.94330566 -15 25 C-16.56594397 23.43405603 -16.16994611 21.92668297 -16.1875 19.75 C-16.14149034 13.40066756 -15.09553557 7.2406401 -14 1 C-13.06542969 1.17273438 -12.13085938 1.34546875 -11.16796875 1.5234375 C-6.93447881 2.16028802 -4.00996894 1.33665631 0 0 Z " fill="#5BE36D" transform="translate(223,230)"/>
<path d="M0 0 C2 2 2 2 2 5 C2.61875 5.12375 3.2375 5.2475 3.875 5.375 C6 6 6 6 8 8 C8.680625 8.165 9.36125 8.33 10.0625 8.5 C10.701875 8.665 11.34125 8.83 12 9 C12.33 9.66 12.66 10.32 13 11 C13.99 11.33 14.98 11.66 16 12 C16 14.64 16 17.28 16 20 C15.67 18.68 15.34 17.36 15 16 C13.39125 15.566875 13.39125 15.566875 11.75 15.125 C8.90599636 14.27179891 6.56491017 13.4363497 4 12 C4 10.68 4 9.36 4 8 C3.34 8 2.68 8 2 8 C2.00222061 8.83984436 2.00444122 9.67968872 2.00672913 10.54498291 C2.02706843 18.60070559 2.04214098 26.65641921 2.05181217 34.71216202 C2.05695187 38.85011166 2.06387922 42.98803948 2.07543945 47.12597656 C2.13073909 67.4444583 1.9351851 87.69842172 1 108 C0.67 108 0.34 108 0 108 C0 72.36 0 36.72 0 0 Z " fill="#C6B391" transform="translate(207,136)"/>
<path d="M0 0 C2.79241566 2.79241566 3.19234017 5.14808387 4 9 C3.88012687 11.74749209 3.4770918 14.28057673 3 17 C2.34 17 1.68 17 1 17 C1 18.32 1 19.64 1 21 C0.34 21 -0.32 21 -1 21 C-1.33 21.99 -1.66 22.98 -2 24 C-2.33 22.35 -2.66 20.7 -3 19 C-6.25288346 21.84627303 -7.84925991 23.52433381 -8.296875 27.90625 C-8.26505768 30.13346227 -8.2014661 32.3604025 -8.109375 34.5859375 C-7.95385163 39.44048839 -8.45919715 44.18106029 -9 49 C-9.33 49 -9.66 49 -10 49 C-11.36326269 38.2643063 -12.31366039 27.83870913 -12 17 C-11.01 17 -10.02 17 -9 17 C-8.938125 16.443125 -8.87625 15.88625 -8.8125 15.3125 C-7.6519231 12.00931958 -5.59786554 10.28105267 -3 8 C-2.34 8 -1.68 8 -1 8 C-0.67 5.36 -0.34 2.72 0 0 Z " fill="#5E81F2" transform="translate(188,103)"/>
<path d="M0 0 C6 2 6 2 8 3 C8.66666667 4.66666667 9.33333333 6.33333333 10 8 C10.66 8.33 11.32 8.66 12 9 C12.70626239 10.98636298 13.36893571 12.98848259 14 15 C14.391875 15.70125 14.78375 16.4025 15.1875 17.125 C16.20610263 19.47562146 15.84518292 20.63348782 15 23 C7.86086211 22.3792054 -0.10596136 20.56140755 -5 15 C-3.02 15.66 -1.04 16.32 1 17 C0.67 11.39 0.34 5.78 0 0 Z " fill="#BDD254" transform="translate(112,159)"/>
<path d="M0 0 C0.33 0 0.66 0 1 0 C1.33 3.3 1.66 6.6 2 10 C3.32 10.33 4.64 10.66 6 11 C7.53846154 20.07692308 7.53846154 20.07692308 5 24 C2.8125 25.4375 2.8125 25.4375 0 26 C-3.8125 25.125 -3.8125 25.125 -7 24 C-6.83335947 16.30423725 -5.76184322 5.76184322 0 0 Z " fill="#7BD6A6" transform="translate(215,95)"/>
<path d="M0 0 C-0.66 3.63 -1.32 7.26 -2 11 C-0.35 11 1.3 11 3 11 C-0.16952847 14.26008643 -3.39937989 17.22237877 -7 20 C-8.875 19.5 -8.875 19.5 -11 18 C-12.88875012 12.52262464 -13.20567661 7.75894522 -13 2 C-10.50935112 1.31292445 -8.62113708 1 -6 1 C-3 0 -3 0 0 0 Z " fill="#06D5BD" transform="translate(111,78)"/>
<path d="M0 0 C2 2 2 2 2.24723816 4.35302734 C2.24581314 5.3373877 2.24438812 6.32174805 2.24291992 7.3359375 C2.24599655 8.45049316 2.24907318 9.56504883 2.25224304 10.71337891 C2.24505753 11.92171387 2.23787201 13.13004883 2.23046875 14.375 C2.22978142 16.22810791 2.22978142 16.22810791 2.2290802 18.11865234 C2.22527837 21.40592229 2.21225908 24.69300012 2.19561768 27.98022461 C2.18217325 31.32536066 2.1853418 34.67046285 2.18554688 38.015625 C2.18063102 40.55208534 2.17480241 43.0885441 2.16796875 45.625 C2.16685593 46.83333496 2.1657431 48.04166992 2.16459656 49.28662109 C2.15821671 50.40117676 2.15183685 51.51573242 2.14526367 52.6640625 C2.13954597 54.14060303 2.13954597 54.14060303 2.13371277 55.64697266 C2 58 2 58 1 60 C0.38769531 60.11730469 -0.22460938 60.23460937 -0.85546875 60.35546875 C-3.82216543 61.2470989 -4.58042494 62.78672944 -6.3125 65.3125 C-9.4776184 69.61486874 -12.19290119 71.74360668 -17 74 C-17 73.34 -17 72.68 -17 72 C-16.154375 71.484375 -15.30875 70.96875 -14.4375 70.4375 C-10.5081652 68.00149909 -8.17604038 64.54311946 -5.515625 60.828125 C-5.01546875 60.22484375 -4.5153125 59.6215625 -4 59 C-3.34 59 -2.68 59 -2 59 C-0.70512984 55.11538953 -0.8767396 51.44116044 -0.90234375 47.39453125 C-0.9037587 46.55532639 -0.90517365 45.71612152 -0.90663147 44.85148621 C-0.91222785 42.17178784 -0.92477965 39.4921731 -0.9375 36.8125 C-0.94251547 34.99544392 -0.94707829 33.17838652 -0.95117188 31.36132812 C-0.96219609 26.90751987 -0.97945822 22.45377411 -1 18 C-1.33 18 -1.66 18 -2 18 C-2 16.35 -2 14.7 -2 13 C-2.66 13 -3.32 13 -4 13 C-4 11.35 -4 9.7 -4 8 C-3.34 8 -2.68 8 -2 8 C-2 6.68 -2 5.36 -2 4 C-1.34 4 -0.68 4 0 4 C0 2.68 0 1.36 0 0 Z " fill="#7950BB" transform="translate(191,116)"/>
<path d="M0 0 C1.65 1.32 3.3 2.64 5 4 C4.84660156 4.75539063 4.69320312 5.51078125 4.53515625 6.2890625 C3.8112152 11.3090917 3.63680847 16.31060444 3.4375 21.375 C3.39431641 22.39722656 3.35113281 23.41945312 3.30664062 24.47265625 C3.20112208 26.98165288 3.09900787 29.49073943 3 32 C2.67 32 2.34 32 2 32 C1.96132812 31.09507812 1.96132812 31.09507812 1.921875 30.171875 C1.65964214 26.4767756 1.42649132 23.71081887 -0.5 20.5 C-4.26019603 18.24388238 -7.64115 18.25640294 -12 18 C-12.33 21.3 -12.66 24.6 -13 28 C-13.33 28 -13.66 28 -14 28 C-14 22.06 -14 16.12 -14 10 C-11.78645833 10.55338542 -9.57291667 11.10677083 -7.359375 11.66015625 C-4.70526081 12.1943271 -4.70526081 12.1943271 -1 11 C-0.67 7.37 -0.34 3.74 0 0 Z " fill="#4DCCC8" transform="translate(221,108)"/>
<path d="M0 0 C0.33 0 0.66 0 1 0 C1 9.57 1 19.14 1 29 C-4 29 -4 29 -6.01953125 27.25 C-6.61121094 26.5075 -7.20289063 25.765 -7.8125 25 C-8.41707031 24.2575 -9.02164063 23.515 -9.64453125 22.75 C-10.31548828 21.88375 -10.31548828 21.88375 -11 21 C-10.34 20.67 -9.68 20.34 -9 20 C-7.69364726 17.69467163 -6.84142926 15.52428777 -6 13 C-5.34 13 -4.68 13 -4 13 C-3.814375 11.329375 -3.814375 11.329375 -3.625 9.625 C-3 6 -3 6 -1 4 C-0.3574765 1.93125966 -0.3574765 1.93125966 0 0 Z " fill="#9AA3CB" transform="translate(191,182)"/>
<path d="M0 0 C1.010625 0.309375 2.02125 0.61875 3.0625 0.9375 C6.75703959 2.06848151 10.02750821 2.43250117 14 3 C13.67 9.6 13.34 16.2 13 23 C12.67 23 12.34 23 12 23 C11.814375 21.9275 11.62875 20.855 11.4375 19.75 C10.78326261 17.39379722 10.3742591 16.28668616 8.4140625 14.78515625 C6.61739761 13.84133862 4.80883256 12.92028323 3 12 C1.95884159 10.69855198 0.94622159 9.37202131 0 8 C-0.99 7.67 -1.98 7.34 -3 7 C-1.125 1.125 -1.125 1.125 0 0 Z " fill="#50CADF" transform="translate(82,105)"/>
<path d="M0 0 C0.33 0 0.66 0 1 0 C1 1.65 1 3.3 1 5 C0.01 5.495 0.01 5.495 -1 6 C-1 10.95 -1 15.9 -1 21 C0.65 21 2.3 21 4 21 C5.20628008 18.66785852 6.1654738 16.50357861 7 14 C7.66 14 8.32 14 9 14 C9 13.34 9 12.68 9 12 C9.99 12.33 10.98 12.66 12 13 C11.52949219 13.65226562 11.05898437 14.30453125 10.57421875 14.9765625 C7.33556068 19.52275333 4.28222074 23.8985654 2 29 C0.0625 28.25 0.0625 28.25 -2 27 C-2.75 24.875 -2.75 24.875 -3 23 C-3.639375 22.896875 -4.27875 22.79375 -4.9375 22.6875 C-5.618125 22.460625 -6.29875 22.23375 -7 22 C-8.39260837 17.8221749 -8.9543738 14.34770285 -8 10 C-5.7054586 6.31234418 -3.05045249 3.08914744 0 0 Z " fill="#0AD4AF" transform="translate(224,83)"/>
<path d="M0 0 C0.02496844 4.51659796 0.04298537 9.03315791 0.05493164 13.54980469 C0.05991896 15.08203838 0.06671122 16.61426742 0.07543945 18.14648438 C0.12174177 26.49179593 0.04734171 34.70373415 -1 43 C-1.33 43 -1.66 43 -2 43 C-2.33 41.02 -2.66 39.04 -3 37 C-3.99 37 -4.98 37 -6 37 C-6.66 36.34 -7.32 35.68 -8 35 C-7.690625 34.505 -7.38125 34.01 -7.0625 33.5 C-4.14000412 26.62353911 -4.72935073 18.08740189 -4.5703125 10.71484375 C-4.16017494 0 -4.16017494 0 0 0 Z " fill="#D7D743" transform="translate(220,169)"/>
<path d="M0 0 C0.94842031 2.54245205 1.18742484 3.58934151 0.0390625 6.10546875 C-0.66089844 7.13607422 -0.66089844 7.13607422 -1.375 8.1875 C-1.83648437 8.88230469 -2.29796875 9.57710937 -2.7734375 10.29296875 C-4 12 -4 12 -5 13 C-5.1351823 15.42282417 -5.21046394 17.82125563 -5.24609375 20.24609375 C-5.27902865 21.73763616 -5.31224035 23.22917247 -5.34570312 24.72070312 C-5.3931715 27.08207036 -5.43759816 29.44341225 -5.47680664 31.80493164 C-5.51643872 34.07724997 -5.56800177 36.34905574 -5.62109375 38.62109375 C-5.6295079 39.32946884 -5.63792206 40.03784393 -5.64659119 40.76768494 C-5.77332648 45.77332648 -5.77332648 45.77332648 -8 48 C-9.79024436 42.62926693 -9.18590611 36.79479192 -9.18530273 31.16894531 C-9.18747213 28.90410078 -9.20558818 26.63975728 -9.22460938 24.375 C-9.25238202 17.00823027 -9.04753281 10.13803929 -7 3 C-5.5459375 2.814375 -5.5459375 2.814375 -4.0625 2.625 C-2.5465625 2.315625 -2.5465625 2.315625 -1 2 C-0.67 1.34 -0.34 0.68 0 0 Z " fill="#ECB370" transform="translate(218,157)"/>
<path d="M0 0 C3.05936637 3.75467691 5 7.08113061 5 12 C5.66 12 6.32 12 7 12 C6.67 13.98 6.34 15.96 6 18 C2.04 17.67 -1.92 17.34 -6 17 C-6.33 16.01 -6.66 15.02 -7 14 C-7.66 13.67 -8.32 13.34 -9 13 C-7.8782037 11.2063257 -6.75245517 9.4151227 -5.625 7.625 C-4.99851562 6.62726563 -4.37203125 5.62953125 -3.7265625 4.6015625 C-2 2 -2 2 0 0 Z " fill="#97DA77" transform="translate(92,86)"/>
<path d="M0 0 C5.00599616 2.50299808 5.63248028 4.08958872 8 9 C7.67 9.66 7.34 10.32 7 11 C6.34 10.67 5.68 10.34 5 10 C4.67 16.6 4.34 23.2 4 30 C0.22953502 28.74317834 -0.7835127 27.25084804 -3 24 C-3.75 21.1875 -3.75 21.1875 -4 19 C-3.01 18.67 -2.02 18.34 -1 18 C-0.505 9.09 -0.505 9.09 0 0 Z " fill="#E3B86B" transform="translate(94,138)"/>
<path d="M0 0 C0.33 0 0.66 0 1 0 C0.67 3.3 0.34 6.6 0 10 C-1.03125 10.4125 -2.0625 10.825 -3.125 11.25 C-5.75509302 12.36579704 -7.76960771 13.51307181 -10.1875 15.125 C-12.71819061 16.81212707 -14.11077872 17.44079588 -17 18 C-21.68691968 19.23339992 -23.66365543 21.69866554 -26.47265625 25.44140625 C-28.2766502 27.28231056 -29.53242838 27.46134091 -32 28 C-32.33 28.66 -32.66 29.32 -33 30 C-34.65 29.67 -36.3 29.34 -38 29 C-37.34 28.484375 -36.68 27.96875 -36 27.4375 C-29.77055533 22.37607621 -24.41705214 17.76361109 -20 11 C-19.67 12.32 -19.34 13.64 -19 15 C-19.66 15 -20.32 15 -21 15 C-21 15.66 -21 16.32 -21 17 C-10.24463826 11.5115181 -10.24463826 11.5115181 -2 3 C-1.34 3 -0.68 3 0 3 C0 2.01 0 1.02 0 0 Z " fill="#348DFC" transform="translate(320,133)"/>
<path d="M0 0 C4.28183564 3.925016 8.48609348 8.12428832 9.28125 14.12109375 C9.32824105 17.32235927 9.01368247 19.95895259 8 23 C6.27870503 24.62004233 4.45074522 26.03875786 2.59375 27.5 C0.73155509 29.01516837 0.73155509 29.01516837 0 32 C-0.99 32 -1.98 32 -3 32 C-3.33 33.32 -3.66 34.64 -4 36 C-4.12955078 34.78376953 -4.12955078 34.78376953 -4.26171875 33.54296875 C-5.27268362 25.57582361 -7.26922935 19.10555174 -11 12 C-10.13375 12.495 -10.13375 12.495 -9.25 13 C-6.80116138 14.27075898 -6.80116138 14.27075898 -3 14 C-3.20625 14.86625 -3.4125 15.7325 -3.625 16.625 C-4.04279223 20.38513007 -3.34739245 22.51263132 -2 26 C-2 26.66 -2 27.32 -2 28 C3.08441876 24.35248219 4.79444959 22.14830711 6 16 C5.34 15.67 4.68 15.34 4 15 C4.268125 14.154375 4.53625 13.30875 4.8125 12.4375 C5.04850616 8.11072036 3.79720902 6.74376242 1.12890625 3.515625 C0 2 0 2 0 0 Z " fill="#18A3F8" transform="translate(179,88)"/>
<path d="M0 0 C4.278551 0.47539456 6.09647107 3.02565329 9 6 C10.24330078 6.57814453 10.24330078 6.57814453 11.51171875 7.16796875 C15.03116016 9.75920583 15.50650395 12.86140718 16.375 16.9375 C16.55160156 17.65357422 16.72820312 18.36964844 16.91015625 19.10742188 C17.73195418 22.65430173 18.38847861 25.54683566 17 29 C16.5875 28.071875 16.175 27.14375 15.75 26.1875 C14.31480794 22.98302002 14.31480794 22.98302002 12 21.6875 C9.18238244 19.31013518 8.697323 16.63761058 7.7109375 13.15625 C7.02173397 10.7441468 7.02173397 10.7441468 5 8 C5 7.01 5 6.02 5 5 C3.35 4.67 1.7 4.34 0 4 C0 2.68 0 1.36 0 0 Z " fill="#E4B29A" transform="translate(79,112)"/>
<path d="M0 0 C1.98 0 3.96 0 6 0 C10.18226113 7.9324705 10.18226113 7.9324705 9.5625 11.5625 C9.046875 12.366875 8.53125 13.17125 8 14 C7.58363281 14.68578125 7.16726562 15.3715625 6.73828125 16.078125 C5.52135541 18.07262809 4.27342493 20.04125859 3 22 C1.414131 18.828262 1.62133555 15.36486178 1.4375 11.875 C1.37272461 10.74384766 1.37272461 10.74384766 1.30664062 9.58984375 C1.2005168 7.72678112 1.09974999 5.86341476 1 4 C0.34 4 -0.32 4 -1 4 C-0.67 2.68 -0.34 1.36 0 0 Z " fill="#E4B98A" transform="translate(242,176)"/>
<path d="M0 0 C0 0.99 0 1.98 0 3 C0.54527344 3.10957031 1.09054688 3.21914062 1.65234375 3.33203125 C5.81800021 4.20788722 9.92722675 5.19540222 14 6.4375 C15.11375 6.77587891 15.11375 6.77587891 16.25 7.12109375 C18 8 18 8 19 11 C14.19345302 10.21912565 9.40944461 9.34161295 4.625 8.4375 C3.88894531 8.29892578 3.15289062 8.16035156 2.39453125 8.01757812 C0.59624952 7.67894066 -1.20188999 7.33954809 -3 7 C-3 7.66 -3 8.32 -3 9 C-3.66 9 -4.32 9 -5 9 C-7.43160605 5.63316085 -8 4.26649636 -8 0 C-5.13822943 -1.43088528 -3.06624227 -0.59991697 0 0 Z " fill="#D125FE" transform="translate(147,167)"/>
<path d="M0 0 C3.02706564 1.9979728 5.72842177 4.16340992 8 7 C8 8.32 8 9.64 8 11 C7.01 10.67 6.02 10.34 5 10 C5 9.34 5 8.68 5 8 C4.39671875 8.09539062 3.7934375 8.19078125 3.171875 8.2890625 C2.37265625 8.39992187 1.5734375 8.51078125 0.75 8.625 C-0.03890625 8.74101562 -0.8278125 8.85703125 -1.640625 8.9765625 C-4.32152459 9.00319395 -5.72694089 8.36592084 -8 7 C-8 6.01 -8 5.02 -8 4 C-9.98 4 -11.96 4 -14 4 C-9.46012242 0.97341494 -5.51950329 -0.97402999 0 0 Z " fill="#9E45FD" transform="translate(158,161)"/>
<path d="M0 0 C2.3125 0.125 2.3125 0.125 5 1 C6.75 4 6.75 4 8 7 C8.33 7.33 8.66 7.66 9 8 C9.3300703 15.69840424 9.24299164 23.38667619 8 31 C7.01 31.33 6.02 31.66 5 32 C4.08801435 28.01006278 3.35826942 24.18943374 4.53125 20.1875 C5.10498321 17.51007835 4.9042462 15.28326365 4.625 12.5625 C4.53476563 11.63566406 4.44453125 10.70882812 4.3515625 9.75390625 C4.01714884 7.13433261 3.55282711 4.58142152 3 2 C2.01 2 1.02 2 0 2 C0 1.34 0 0.68 0 0 Z " fill="#F891BB" transform="translate(79,116)"/>
<path d="M0 0 C0.33 0 0.66 0 1 0 C4.14228457 14.19639279 4.14228457 14.19639279 1.8125 17.875 C-0.56036279 19.34781139 -2.25913944 19.22223194 -5 19 C-6.23373583 14.04276027 -5.71097075 11.31466716 -3.625 6.6875 C-3.16351563 5.63949219 -2.70203125 4.59148437 -2.2265625 3.51171875 C-1 1 -1 1 0 0 Z " fill="#8BD28D" transform="translate(215,95)"/>
<path d="M0 0 C2.64 0.66 5.28 1.32 8 2 C8.19335938 2.77085937 8.38671875 3.54171875 8.5859375 4.3359375 C8.84632813 5.33882812 9.10671875 6.34171875 9.375 7.375 C9.63023437 8.37273437 9.88546875 9.37046875 10.1484375 10.3984375 C10.82404319 13.12541015 10.82404319 13.12541015 13 15 C13 15.99 13 16.98 13 18 C15.31 18 17.62 18 20 18 C20 18.33 20 18.66 20 19 C15.71 19 11.42 19 7 19 C6.87625 17.88625 6.7525 16.7725 6.625 15.625 C6.3534187 11.96896323 6.3534187 11.96896323 4 10 C3.875 7.375 3.875 7.375 4 5 C2.68 4.34 1.36 3.68 0 3 C0 2.01 0 1.02 0 0 Z " fill="#F39BB1" transform="translate(120,163)"/>
<path d="M0 0 C0.0515625 0.60328125 0.103125 1.2065625 0.15625 1.828125 C0.78532842 6.80949766 0.78532842 6.80949766 3.9140625 10.48828125 C5.91766821 11.46176459 7.88714983 12.29735448 10 13 C10 13.33 10 13.66 10 14 C4.39 13.67 -1.22 13.34 -7 13 C-6.4140625 3.72265625 -6.4140625 3.72265625 -6 1 C-4 0 -4 0 0 0 Z " fill="#B477FB" transform="translate(264,168)"/>
<path d="M0 0 C0.33 0 0.66 0 1 0 C1 3.3 1 6.6 1 10 C0.01 10.33 -0.98 10.66 -2 11 C-3.02281518 13.09719872 -3.02281518 13.09719872 -3.6875 15.5625 C-3.93886719 16.38878906 -4.19023437 17.21507812 -4.44921875 18.06640625 C-4.63097656 18.70449219 -4.81273437 19.34257812 -5 20 C-5.99 20 -6.98 20 -8 20 C-8 24.62 -8 29.24 -8 34 C-8.33 34 -8.66 34 -9 34 C-9.05819424 30.75007554 -9.09366116 27.50028565 -9.125 24.25 C-9.14175781 23.32960937 -9.15851563 22.40921875 -9.17578125 21.4609375 C-9.18222656 20.57148438 -9.18867188 19.68203125 -9.1953125 18.765625 C-9.20578613 17.94868164 -9.21625977 17.13173828 -9.22705078 16.29003906 C-8.97624121 13.76036833 -8.25160281 12.19251155 -7 10 C-6.731875 9.38125 -6.46375 8.7625 -6.1875 8.125 C-4.47602928 5.06236819 -2.32798829 2.62644833 0 0 Z " fill="#C0CF4C" transform="translate(217,202)"/>
<path d="M0 0 C1.76746961 3.53493921 0.55354916 7.29834887 -0.6328125 10.9453125 C-2.01379659 14.41957775 -2.82573572 15.88382381 -6 18 C-10 18 -10 18 -12.25 16.125 C-14 14 -14 14 -14 12 C-11.52414521 10.302271 -9.32490101 9.09509298 -6.4375 8.25 C-2.75672823 6.36242473 -1.8289238 3.6578476 0 0 Z " fill="#03C7D6" transform="translate(187,180)"/>
<path d="M0 0 C0.99 0.33 1.98 0.66 3 1 C2.67 1.33 2.34 1.66 2 2 C2.42092041 4.87579892 2.89881684 7.70862537 3.4375 10.5625 C3.58509766 11.36880859 3.73269531 12.17511719 3.88476562 13.00585938 C4.25144299 15.00484242 4.6250803 17.00254644 5 19 C4.01 19.33 3.02 19.66 2 20 C-1 14.375 -1 14.375 -1 11 C-2.65 11 -4.3 11 -6 11 C-4.74194623 6.49197399 -3.09592835 3.5087188 0 0 Z " fill="#C3A6CB" transform="translate(249,165)"/>
<path d="M0 0 C2.54296875 1.484375 2.54296875 1.484375 5 4 C5.03958698 7.03297147 4.86244877 9.32726758 4.3125 12.25 C4.19455078 12.99507812 4.07660156 13.74015625 3.95507812 14.5078125 C3.66104084 16.34260514 3.3337149 18.17200757 3 20 C2.44828125 19.55011719 1.8965625 19.10023437 1.328125 18.63671875 C-1.13274867 16.90667501 -3.44478805 15.88290982 -6.25 14.8125 C-7.14203125 14.46832031 -8.0340625 14.12414062 -8.953125 13.76953125 C-9.62859375 13.51558594 -10.3040625 13.26164062 -11 13 C-10.67 12.34 -10.34 11.68 -10 11 C-9.2575 11.185625 -8.515 11.37125 -7.75 11.5625 C-4.77159084 12.22052711 -4.77159084 12.22052711 -1 11 C-0.67 7.37 -0.34 3.74 0 0 Z " fill="#6AD5C1" transform="translate(221,108)"/>
<path d="M0 0 C-0.8999338 1.82086605 -1.82055314 3.63152033 -2.75 5.4375 C-3.51570312 6.95150391 -3.51570312 6.95150391 -4.296875 8.49609375 C-6 11 -6 11 -8.140625 11.91015625 C-8.75421875 11.93980469 -9.3678125 11.96945313 -10 12 C-11 11 -11 11 -11.09765625 8.71484375 C-11.08605469 7.79832031 -11.07445312 6.88179687 -11.0625 5.9375 C-11.05347656 5.01839844 -11.04445312 4.09929687 -11.03515625 3.15234375 C-11.02355469 2.44207031 -11.01195312 1.73179687 -11 1 C-4.03571429 -1.27678571 -4.03571429 -1.27678571 0 0 Z " fill="#0FD998" transform="translate(218,243)"/>
<path d="M0 0 C0.66 1.32 1.32 2.64 2 4 C2.99 4.66 3.98 5.32 5 6 C5.73080266 7.97746603 6.39421747 9.98072489 7 12 C7.391875 12.70125 7.78375 13.4025 8.1875 14.125 C9.20610263 16.47562146 8.84518292 17.63348782 8 20 C1.25 19.25 1.25 19.25 -1 17 C-0.34 17 0.32 17 1 17 C0.67 11.39 0.34 5.78 0 0 Z " fill="#C0C77C" transform="translate(119,162)"/>
<path d="M0 0 C1.55291822 2.43214398 2.03160011 3.67313639 1.75 6.5859375 C0.00823716 13.06311806 -1.65018912 16.85116707 -7 21 C-9.19140625 21.6484375 -9.19140625 21.6484375 -11 22 C-11 20.35 -11 18.7 -11 17 C-10.34 17 -9.68 17 -9 17 C-8.938125 16.443125 -8.87625 15.88625 -8.8125 15.3125 C-7.6519231 12.00931958 -5.59786554 10.28105267 -3 8 C-2.34 8 -1.68 8 -1 8 C-0.67 5.36 -0.34 2.72 0 0 Z " fill="#538FFA" transform="translate(188,103)"/>
<path d="M0 0 C2 2 2 2 2 5 C2.61875 5.12375 3.2375 5.2475 3.875 5.375 C6 6 6 6 8 8 C8.680625 8.165 9.36125 8.33 10.0625 8.5 C10.701875 8.665 11.34125 8.83 12 9 C12.33 9.66 12.66 10.32 13 11 C13.99 11.33 14.98 11.66 16 12 C16 14.64 16 17.28 16 20 C15.67 18.68 15.34 17.36 15 16 C13.39125 15.566875 13.39125 15.566875 11.75 15.125 C8.90599636 14.27179891 6.56491017 13.4363497 4 12 C4 10.68 4 9.36 4 8 C2.68 8 1.36 8 0 8 C0 5.36 0 2.72 0 0 Z " fill="#C5C4AB" transform="translate(207,136)"/>
<path d="M0 0 C2.97 1.98 2.97 1.98 6 4 C5.67 4.66 5.34 5.32 5 6 C4.34 5.67 3.68 5.34 3 5 C2.89193856 7.91765891 2.81267123 10.83131125 2.75 13.75 C2.69972656 14.9875 2.69972656 14.9875 2.6484375 16.25 C2.51352903 21.30162387 2.51352903 21.30162387 5.015625 25.578125 C5.67046875 26.04734375 6.3253125 26.5165625 7 27 C3.62779062 25.81516968 1.22325884 24.84207926 -1 22 C-1.35644531 19.74755859 -1.35644531 19.74755859 -1.328125 17.1484375 C-1.32296875 16.21515625 -1.3178125 15.281875 -1.3125 14.3203125 C-1.291875 13.34835938 -1.27125 12.37640625 -1.25 11.375 C-1.24484375 10.3953125 -1.2396875 9.415625 -1.234375 8.40625 C-1.15401786 1.15401786 -1.15401786 1.15401786 0 0 Z " fill="#D7CB2A" transform="translate(99,147)"/>
<path d="M0 0 C1.7634375 0.7115625 1.7634375 0.7115625 3.5625 1.4375 C7.40103259 2.88806847 10.92740191 3.57577103 15 4 C15 6.64 15 9.28 15 12 C13.68 11.67 12.36 11.34 11 11 C11 10.34 11 9.68 11 9 C10.278125 8.896875 9.55625 8.79375 8.8125 8.6875 C5.64392411 7.91295923 3.57763256 7.00482532 1 5 C0.1875 2.3125 0.1875 2.3125 0 0 Z " fill="#6BDED3" transform="translate(208,136)"/>
<path d="M0 0 C0.33 0 0.66 0 1 0 C1.0272367 2.52090778 1.04695207 5.04151457 1.0625 7.5625 C1.07087891 8.26697266 1.07925781 8.97144531 1.08789062 9.69726562 C1.10882603 14.24024798 0.74800682 18.51784892 0 23 C-0.99 23 -1.98 23 -3 23 C-3 16.4 -3 9.8 -3 3 C-2.01 2.67 -1.02 2.34 0 2 C0 1.34 0 0.68 0 0 Z " fill="#F6A680" transform="translate(93,133)"/>
<path d="M0 0 C0.99 0 1.98 0 3 0 C0.56424778 9.60382303 -4.69940144 17.36309222 -12 24 C-12.75 22.3125 -12.75 22.3125 -13 20 C-11.25 17.4375 -11.25 17.4375 -9 15 C-8.46375 14.401875 -7.9275 13.80375 -7.375 13.1875 C-6 12 -6 12 -4 12 C-3.79503906 11.21753906 -3.59007812 10.43507812 -3.37890625 9.62890625 C-3.10949219 8.61699219 -2.84007812 7.60507813 -2.5625 6.5625 C-2.29566406 5.55316406 -2.02882813 4.54382813 -1.75390625 3.50390625 C-1 1 -1 1 0 0 Z " fill="#6372E8" transform="translate(316,143)"/>
<path d="M0 0 C0.99 4.95 1.98 9.9 3 15 C3.99 15.33 4.98 15.66 6 16 C5.67 16.66 5.34 17.32 5 18 C2.9375 18.625 2.9375 18.625 1 19 C1 18.34 1 17.68 1 17 C0.34 17 -0.32 17 -1 17 C-5.02335153 9.07417017 -5.02335153 9.07417017 -4.9375 5.125 C-4.0087325 3.01979367 -2.66292271 0 0 0 Z " fill="#56E08D" transform="translate(98,81)"/>
<path d="M0 0 C2.66666667 0.66666667 5.33333333 1.33333333 8 2 C8 2.66 8 3.32 8 4 C9.32 4 10.64 4 12 4 C12.33 5.98 12.66 7.96 13 10 C2.65939519 8.1218987 2.65939519 8.1218987 0 5 C-0.25 2.3125 -0.25 2.3125 0 0 Z " fill="#0BDEE3" transform="translate(208,128)"/>
<path d="M0 0 C0.65234375 1.734375 0.65234375 1.734375 1 4 C0.00390625 6.140625 0.00390625 6.140625 -1.4375 8.25 C-1.91058594 8.95640625 -2.38367188 9.6628125 -2.87109375 10.390625 C-3.24363281 10.92171875 -3.61617187 11.4528125 -4 12 C-5 10 -5 10 -4 6 C-7.3 6 -10.6 6 -14 6 C-14 4.35 -14 2.7 -14 1 C-13.113125 1.185625 -12.22625 1.37125 -11.3125 1.5625 C-7.01444781 2.13016727 -4.06410711 1.35470237 0 0 Z " fill="#80DB65" transform="translate(223,230)"/>
<path d="M0 0 C0.33 0 0.66 0 1 0 C0.63599062 7.15885111 0.63599062 7.15885111 -1.9375 10.5625 C-14.31988473 20.41786744 -14.31988473 20.41786744 -21 22 C-21 21.34 -21 20.68 -21 20 C-20.34 20 -19.68 20 -19 20 C-19 19.34 -19 18.68 -19 18 C-17.906875 17.608125 -16.81375 17.21625 -15.6875 16.8125 C-12.00152658 15.25390202 -10.93197895 13.512689 -9 10 C-6.03759752 7.8522582 -4.68553144 7 -1 7 C-0.67 4.69 -0.34 2.38 0 0 Z " fill="#1A96FA" transform="translate(320,128)"/>
<path d="M0 0 C0.66 0 1.32 0 2 0 C2.33 1.65 2.66 3.3 3 5 C3.99 5.33 4.98 5.66 6 6 C6.35412344 7.32796291 6.68521554 8.66216607 7 10 C8.47890069 11.73026102 8.47890069 11.73026102 10 13 C8.68 13.99 7.36 14.98 6 16 C4.125 15.5 4.125 15.5 2 14 C0.39609052 9.18827156 -0.25472042 5.0944085 0 0 Z " fill="#0FD59C" transform="translate(98,82)"/>
<path d="M0 0 C0.33 0 0.66 0 1 0 C1 3.3 1 6.6 1 10 C0.34 10 -0.32 10 -1 10 C-1.268125 10.9075 -1.53625 11.815 -1.8125 12.75 C-2.90832885 15.74911053 -4.04758915 17.53826458 -6 20 C-6.33 20.99 -6.66 21.98 -7 23 C-8.32 22.34 -9.64 21.68 -11 21 C-10.34 20.67 -9.68 20.34 -9 20 C-7.69364726 17.69467163 -6.84142926 15.52428777 -6 13 C-5.34 13 -4.68 13 -4 13 C-3.814375 11.329375 -3.814375 11.329375 -3.625 9.625 C-3 6 -3 6 -1 4 C-0.3574765 1.93125966 -0.3574765 1.93125966 0 0 Z " fill="#7AB7CE" transform="translate(191,182)"/>
<path d="M0 0 C0 0.99 0 1.98 0 3 C-0.99 3.495 -0.99 3.495 -2 4 C-2 5.32 -2 6.64 -2 8 C1.63 8 5.26 8 9 8 C9.12375 7.030625 9.2475 6.06125 9.375 5.0625 C9.58125 4.051875 9.7875 3.04125 10 2 C10.66 1.67 11.32 1.34 12 1 C11.9375 4.3125 11.9375 4.3125 11 8 C5.72777135 11.404981 1.16090385 11.28434941 -5 11 C-5 7.7 -5 4.4 -5 1 C-3.35 0.67 -1.7 0.34 0 0 Z " fill="#AFD921" transform="translate(222,211)"/>
<path d="M0 0 C0.99 0.33 1.98 0.66 3 1 C4.17293889 7.3778552 5.29530838 13.50321562 5 20 C4.34 20.33 3.68 20.66 3 21 C2.49595192 18.89679937 1.99689492 16.79240209 1.5 14.6875 C1.08234375 12.92986328 1.08234375 12.92986328 0.65625 11.13671875 C0 8 0 8 0 5 C-0.99 5.495 -0.99 5.495 -2 6 C-1.34 4.02 -0.68 2.04 0 0 Z " fill="#DAC772" transform="translate(240,179)"/>
<path d="M0 0 C0.99 0 1.98 0 3 0 C3.26596233 16.6669729 3.26596233 16.6669729 2 24 C1.34 24.66 0.68 25.32 0 26 C0 17.42 0 8.84 0 0 Z " fill="#E5BB5E" transform="translate(212,172)"/>
<path d="M0 0 C0.33 0.66 0.66 1.32 1 2 C1.66 2 2.32 2 3 2 C3 3.32 3 4.64 3 6 C5.475 6.99 5.475 6.99 8 8 C7.319375 8.61875 7.319375 8.61875 6.625 9.25 C4.94049626 11.06408095 4.00734029 12.75285627 3 15 C2.67 13.35 2.34 11.7 2 10 C1.67 15.28 1.34 20.56 1 26 C0.67 26 0.34 26 0 26 C0 17.42 0 8.84 0 0 Z " fill="#EBB89A" transform="translate(208,142)"/>
<path d="M0 0 C0.33 0 0.66 0 1 0 C1.28992647 3.92827235 1.57449608 7.85689574 1.85449219 11.78588867 C1.99663687 13.76565883 2.14280109 15.74513909 2.2890625 17.72460938 C2.81653558 25.16574746 3.1400727 32.54015605 3 40 C2.01 39.67 1.02 39.34 0 39 C0.99 38.505 0.99 38.505 2 38 C1.855625 36.700625 1.71125 35.40125 1.5625 34.0625 C1.48128906 33.33160156 1.40007812 32.60070312 1.31640625 31.84765625 C1.18113386 29.98859771 1.18113386 29.98859771 0 29 C-0.26085451 27.57109694 -0.45967185 26.13057853 -0.625 24.6875 C-0.72039062 23.90761719 -0.81578125 23.12773437 -0.9140625 22.32421875 C-1 20 -1 20 -0.51147461 18.09790039 C0.31872379 14.69269998 0.10250681 11.23366994 0.0625 7.75 C0.05798828 7.00492188 0.05347656 6.25984375 0.04882812 5.4921875 C0.03709246 3.6614236 0.0191585 1.83070127 0 0 Z " fill="#1C0C46" transform="translate(177,144)"/>
<path d="M0 0 C0.86625 0.495 0.86625 0.495 1.75 1 C4.19883862 2.27075898 4.19883862 2.27075898 8 2 C7.79375 2.86625 7.5875 3.7325 7.375 4.625 C6.75272956 7.95282599 6.75272956 7.95282599 8 10.75 C9.40464063 15.31508203 8.68258441 19.33259851 8 24 C7.67 24 7.34 24 7 24 C6.87044922 22.78376953 6.87044922 22.78376953 6.73828125 21.54296875 C5.72731638 13.57582361 3.73077065 7.10555174 0 0 Z " fill="#16A6D4" transform="translate(168,100)"/>
<path d="M0 0 C3.3 0.33 6.6 0.66 10 1 C11 5 11 5 10 8 C6.05783322 7.7312159 4.43510186 7.44655191 1.625 4.5625 C0 2 0 2 0 0 Z " fill="#2CD6DD" transform="translate(85,111)"/>
<path d="M0 0 C-0.59167969 0.23074219 -1.18335937 0.46148437 -1.79296875 0.69921875 C-6.91040744 2.81131009 -10.15148977 4.92510681 -14 9 C-14.99 9 -15.98 9 -17 9 C-17.33 9.66 -17.66 10.32 -18 11 C-18.99 10.01 -19.98 9.02 -21 8 C-6.78101541 -2.1705237 -6.78101541 -2.1705237 0 0 Z " fill="#18CBCF" transform="translate(122,70)"/>
<path d="M0 0 C0.91232429 3.38628474 1.49836427 6.78996751 2.0625 10.25 C2.23910156 11.32765625 2.41570312 12.4053125 2.59765625 13.515625 C2.73042969 14.33546875 2.86320313 15.1553125 3 16 C1.0625 16.5625 1.0625 16.5625 -1 17 C-1.33 16.67 -1.66 16.34 -2 16 C-2 13.66666667 -2 11.33333333 -2 9 C-2.33 8.01 -2.66 7.02 -3 6 C-3.66 5.67 -4.32 5.34 -5 5 C-2.25 1.125 -2.25 1.125 0 0 Z " fill="#CFCA5F" transform="translate(240,183)"/>
<path d="M0 0 C4.278551 0.47539456 6.09647107 3.02565329 9 6 C10.65661761 7.01656081 12.32111559 8.02065076 14 9 C15.4783226 11.95664519 15.06032783 14.74229737 15 18 C14.67 18 14.34 18 14 18 C14 16.02 14 14.04 14 12 C13.21625 11.87625 12.4325 11.7525 11.625 11.625 C9 11 9 11 7 9 C6.34 8.67 5.68 8.34 5 8 C5 7.01 5 6.02 5 5 C3.35 4.67 1.7 4.34 0 4 C0 2.68 0 1.36 0 0 Z " fill="#CDA1E1" transform="translate(79,112)"/>
<path d="M0 0 C1.859375 0.09765625 1.859375 0.09765625 4 1 C5.265625 3.87109375 5.265625 3.87109375 6.25 7.4375 C6.58515625 8.61183594 6.9203125 9.78617188 7.265625 10.99609375 C8 14 8 14 8 16 C7.01 16 6.02 16 5 16 C1.91532502 10.60540561 0.44356295 6.20988129 0 0 Z " fill="#FB7BC8" transform="translate(128,165)"/>
<path d="M0 0 C4.93150933 0.82191822 8.27014978 3.68537739 11.375 7.5625 C11.375 8.8825 11.375 10.2025 11.375 11.5625 C10.385 11.2325 9.395 10.9025 8.375 10.5625 C8.375 9.9025 8.375 9.2425 8.375 8.5625 C7.385 8.5625 6.395 8.5625 5.375 8.5625 C5.045 7.2425 4.715 5.9225 4.375 4.5625 C-0.08 3.5725 -0.08 3.5725 -4.625 2.5625 C-2.625 0.5625 -2.625 0.5625 0 0 Z " fill="#8A47DA" transform="translate(154.625,160.4375)"/>
<path d="M0 0 C1.98 0.99 1.98 0.99 4 2 C3.67 8.93 3.34 15.86 3 23 C-0.375 18.5 -0.375 18.5 -0.29296875 14.453125 C-0.28330078 13.60878906 -0.27363281 12.76445312 -0.26367188 11.89453125 C-0.23853516 11.02183594 -0.21339844 10.14914063 -0.1875 9.25 C-0.17396484 8.36183594 -0.16042969 7.47367188 -0.14648438 6.55859375 C-0.11121309 4.37177422 -0.06192752 2.18620034 0 0 Z " fill="#E4BD53" transform="translate(95,143)"/>
<path d="M0 0 C6.60890795 9.91336192 5.32382893 21.59125773 5 33 C4.67 33 4.34 33 4 33 C3.93941406 32.04738281 3.87882812 31.09476563 3.81640625 30.11328125 C3.73261719 28.85902344 3.64882813 27.60476562 3.5625 26.3125 C3.48128906 25.07113281 3.40007812 23.82976562 3.31640625 22.55078125 C3.05468863 19.61372798 2.60778387 16.87684367 2 14 C1.9629721 12.3337447 1.95240038 10.66598681 2 9 C1.34 9 0.68 9 0 9 C0 6.03 0 3.06 0 0 Z " fill="#1CA4D5" transform="translate(317,101)"/>
<path d="M0 0 C0.66 0.33 1.32 0.66 2 1 C2 1.99 2 2.98 2 4 C2.66 4 3.32 4 4 4 C3.67 5.98 3.34 7.96 3 10 C-0.96 9.67 -4.92 9.34 -9 9 C-9.33 8.01 -9.66 7.02 -10 6 C-6.7 6 -3.4 6 0 6 C0 4.02 0 2.04 0 0 Z " fill="#8ADB8F" transform="translate(95,94)"/>
<path d="M0 0 C3 1 3 1 4.125 2.8125 C5 5 5 5 5.375 7.125 C5.84540342 9.21059622 5.84540342 9.21059622 8.0625 10.25 C8.701875 10.4975 9.34125 10.745 10 11 C10 11.66 10 12.32 10 13 C10.99 13.33 11.98 13.66 13 14 C9.71303767 14.79953138 8.28976808 15.09658936 5 14 C2.45319052 9.74946279 0.63488082 4.92032635 0 0 Z " fill="#F745DF" transform="translate(136,167)"/>
<path d="M0 0 C0.66 0.33 1.32 0.66 2 1 C3.46125461 9.10332103 3.46125461 9.10332103 2 13 C1.34 13 0.68 13 0 13 C0 14.32 0 15.64 0 17 C-0.66 17 -1.32 17 -2 17 C-2.33 17.99 -2.66 18.98 -3 20 C-3.27136113 14.70845802 -2.22716621 10.09601844 -1 5 C-0.66013333 3.33465333 -0.32297514 1.66870487 0 0 Z " fill="#8078F3" transform="translate(189,107)"/>
<path d="M0 0 C0.99 0.33 1.98 0.66 3 1 C3.38063221 3.3260857 3.71269945 5.66055264 4 8 C3.67 8.33 3.34 8.66 3 9 C2.95907063 11.33297433 2.95758277 13.66705225 3 16 C1.3125 16.6875 1.3125 16.6875 -1 17 C-3.75 15.5625 -3.75 15.5625 -6 14 C-5.34 13.67 -4.68 13.34 -4 13 C-2.68 13.66 -1.36 14.32 0 15 C0 10.05 0 5.1 0 0 Z " fill="#C6D63C" transform="translate(113,161)"/>
<path d="M0 0 C1.010625 0.309375 2.02125 0.61875 3.0625 0.9375 C6.6731369 1.97647919 10.26874647 2.54311181 14 3 C14 4.65 14 6.3 14 8 C11.36 7.67 8.72 7.34 6 7 C6 6.01 6 5.02 6 4 C3.69 3.67 1.38 3.34 -1 3 C-0.67 2.01 -0.34 1.02 0 0 Z " fill="#51E1CD" transform="translate(82,105)"/>
<path d="M0 0 C0.33 0.66 0.66 1.32 1 2 C0.22265625 3.7265625 0.22265625 3.7265625 -0.9375 5.625 C-1.618125 6.73875 -2.29875 7.8525 -3 9 C-3.99 9 -4.98 9 -6 9 C-6 8.34 -6 7.68 -6 7 C-7.546875 7.061875 -7.546875 7.061875 -9.125 7.125 C-12.86829627 7.00424851 -15.53734547 6.35127982 -19 5 C-19 4.01 -19 3.02 -19 2 C-18.34 2 -17.68 2 -17 2 C-16.67 2.66 -16.34 3.32 -16 4 C-13.19019327 4.69227032 -13.19019327 4.69227032 -9.9375 5.125 C-8.83277344 5.29257813 -7.72804688 5.46015625 -6.58984375 5.6328125 C-5.73519531 5.75398438 -4.88054687 5.87515625 -4 6 C-3.896875 5.38125 -3.79375 4.7625 -3.6875 4.125 C-3 2 -3 2 0 0 Z " fill="#81D5A7" transform="translate(102,98)"/>
<path d="M0 0 C0.99 0 1.98 0 3 0 C3 3.3 3 6.6 3 10 C2.01 10 1.02 10 0 10 C0 14.62 0 19.24 0 24 C-0.33 24 -0.66 24 -1 24 C-1.02909763 20.75001888 -1.04683161 17.50007143 -1.0625 14.25 C-1.07087891 13.32960937 -1.07925781 12.40921875 -1.08789062 11.4609375 C-1.09111328 10.57148438 -1.09433594 9.68203125 -1.09765625 8.765625 C-1.10289307 7.94868164 -1.10812988 7.13173828 -1.11352539 6.29003906 C-1.00299021 4.06031865 -0.62055567 2.13866245 0 0 Z " fill="#B0D46D" transform="translate(209,212)"/>
<path d="M0 0 C0.66 0 1.32 0 2 0 C1.67 7.92 1.34 15.84 1 24 C-1 22 -1 22 -1.23046875 18.515625 C-1.22647453 17.09368347 -1.21170527 15.6717411 -1.1875 14.25 C-1.18685547 13.54617187 -1.18621094 12.84234375 -1.18554688 12.1171875 C-1.15093366 7.97898569 -0.80095192 4.07524335 0 0 Z " fill="#DBCB1E" transform="translate(218,176)"/>
<path d="M0 0 C0.33 0 0.66 0 1 0 C0.67 4.62 0.34 9.24 0 14 C-0.99 14.33 -1.98 14.66 -3 15 C-3.77843439 11.59434954 -4.43539696 8.48317572 -4 5 C-2.0625 2.1875 -2.0625 2.1875 0 0 Z " fill="#FC8BA7" transform="translate(87,133)"/>
<path d="M0 0 C0.99 0.495 0.99 0.495 2 1 C2 6.28 2 11.56 2 17 C2.66 17 3.32 17 4 17 C4.33 15.68 4.66 14.36 5 13 C5.66 13 6.32 13 7 13 C6.52797514 17.24822374 4.03344482 19.19989709 1 22 C0.20274098 14.63959083 -0.12886183 7.40239645 0 0 Z " fill="#864CDA" transform="translate(179,162)"/>
<path d="M0 0 C0.66 0.33 1.32 0.66 2 1 C0.95455009 2.80166872 -0.1120877 4.59105379 -1.1875 6.375 C-1.77917969 7.37273437 -2.37085938 8.37046875 -2.98046875 9.3984375 C-5.2147224 12.27660565 -6.58488676 12.9403266 -10 14 C-10.886875 14.556875 -11.77375 15.11375 -12.6875 15.6875 C-13.450625 16.120625 -14.21375 16.55375 -15 17 C-15.66 16.67 -16.32 16.34 -17 16 C-15.91332031 15.27296875 -15.91332031 15.27296875 -14.8046875 14.53125 C-8.7028161 10.30061916 -3.97304165 6.3032222 0 0 Z " fill="#1CA1F0" transform="translate(188,176)"/>
<path d="M0 0 C2.12560437 0.30836232 4.25047065 0.62181614 6.375 0.9375 C8.15003906 1.19853516 8.15003906 1.19853516 9.9609375 1.46484375 C13 2 13 2 15 3 C15 3.99 15 4.98 15 6 C8.07 5.505 8.07 5.505 1 5 C0.67 3.35 0.34 1.7 0 0 Z " fill="#E107F8" transform="translate(147,174)"/>
<path d="M0 0 C6.01326751 0.57914667 12.00892722 1.22337945 18 2 C12.08877921 5.28401155 7.50306384 4.99199279 1 4 C0.67 2.68 0.34 1.36 0 0 Z " fill="#9C89F8" transform="translate(250,164)"/>
<path d="M0 0 C0 3.3 0 6.6 0 10 C-1.65 10 -3.3 10 -5 10 C-5.33 8.68 -5.66 7.36 -6 6 C-5.34 6 -4.68 6 -4 6 C-3.87625 5.195625 -3.7525 4.39125 -3.625 3.5625 C-3.41875 2.716875 -3.2125 1.87125 -3 1 C-1 0 -1 0 0 0 Z " fill="#B290D3" transform="translate(192,201)"/>
<path d="M0 0 C0.33 0 0.66 0 1 0 C2.5056121 7.02618978 1.64057643 13.89452919 1 21 C0.67 21 0.34 21 0 21 C-0.66 15.72 -1.32 10.44 -2 5 C-3.485 7.475 -3.485 7.475 -5 10 C-5.33 9.34 -5.66 8.68 -6 8 C-4.7260411 5.96166576 -3.38938077 3.96147874 -2 2 C-1.34 2 -0.68 2 0 2 C0 1.34 0 0.68 0 0 Z " fill="#C5D637" transform="translate(237,187)"/>
<path d="M0 0 C0 2.31 0 4.62 0 7 C-0.66 7 -1.32 7 -2 7 C-2.33 12.28 -2.66 17.56 -3 23 C-3.33 23 -3.66 23 -4 23 C-4.08733513 19.91684615 -4.14050127 16.83401173 -4.1875 13.75 C-4.21263672 12.87730469 -4.23777344 12.00460938 -4.26367188 11.10546875 C-4.33806242 4.6086946 -4.33806242 4.6086946 -2.55078125 1.390625 C-1 0 -1 0 0 0 Z " fill="#E1C53E" transform="translate(220,169)"/>
<path d="M0 0 C2.64 0.66 5.28 1.32 8 2 C7.01 2.495 7.01 2.495 6 3 C6.33 3.66 6.66 4.32 7 5 C7.04022391 7.3329866 7.04320247 9.66706666 7 12 C6.01 11.34 5.02 10.68 4 10 C3.8125 7.375 3.8125 7.375 4 5 C2.68 4.34 1.36 3.68 0 3 C0 2.01 0 1.02 0 0 Z " fill="#EEAF9B" transform="translate(120,163)"/>
<path d="M0 0 C0 4.07380351 -1.55059629 6.78671446 -4 10 C-6.1875 10.8125 -6.1875 10.8125 -8 11 C-8.33 11.66 -8.66 12.32 -9 13 C-10.65 12.67 -12.3 12.34 -14 12 C-13.34 11.484375 -12.68 10.96875 -12 10.4375 C-5.8198802 5.42256725 -5.8198802 5.42256725 0 0 Z " fill="#477DE3" transform="translate(296,150)"/>
<path d="M0 0 C0.66 0 1.32 0 2 0 C2 1.32 2 2.64 2 4 C1.11248047 4.11408203 1.11248047 4.11408203 0.20703125 4.23046875 C-2.7496184 5.26137137 -3.55659408 6.75197848 -5.3125 9.3125 C-8.4776184 13.61486874 -11.19290119 15.74360668 -16 18 C-16 17.34 -16 16.68 -16 16 C-15.154375 15.484375 -14.30875 14.96875 -13.4375 14.4375 C-9.5081652 12.00149909 -7.17604038 8.54311946 -4.515625 4.828125 C-4.01546875 4.22484375 -3.5153125 3.6215625 -3 3 C-2.34 3 -1.68 3 -1 3 C-0.67 2.01 -0.34 1.02 0 0 Z " fill="#677CF8" transform="translate(190,172)"/>
<path d="M0 0 C0.99 0.33 1.98 0.66 3 1 C3.13794954 8.06608191 2.74805717 14.97360585 2 22 C1.67 22 1.34 22 1 22 C-0.17402193 14.66236293 -0.09377123 7.41834582 0 0 Z " fill="#776EEE" transform="translate(177,130)"/>
<path d="M0 0 C-0.66 1.32 -1.32 2.64 -2 4 C-2.33 3.34 -2.66 2.68 -3 2 C-4.98 2 -6.96 2 -9 2 C-9.33 4.64 -9.66 7.28 -10 10 C-8.02 10.495 -8.02 10.495 -6 11 C-7.9375 11.5625 -7.9375 11.5625 -10 12 C-11 11 -11 11 -11.09765625 8.71484375 C-11.08605469 7.79832031 -11.07445312 6.88179687 -11.0625 5.9375 C-11.05347656 5.01839844 -11.04445312 4.09929687 -11.03515625 3.15234375 C-11.02355469 2.44207031 -11.01195312 1.73179687 -11 1 C-3.57142857 -1.42857143 -3.57142857 -1.42857143 0 0 Z " fill="#39CE89" transform="translate(218,243)"/>
<path d="M0 0 C-7.22723857 3.94890355 -13.78892255 6.94636617 -22 8 C-22 7.34 -22 6.68 -22 6 C-17.545 5.505 -17.545 5.505 -13 5 C-12.67 4.01 -12.34 3.02 -12 2 C-10.0390625 1.015625 -10.0390625 1.015625 -7.625 0.25 C-6.83351563 -0.01296875 -6.04203125 -0.2759375 -5.2265625 -0.546875 C-3 -1 -3 -1 0 0 Z " fill="#7057D7" transform="translate(296,174)"/>
<path d="M0 0 C3.00469351 2.59496258 3.36858796 3.9214699 5 8 C8.63 8.33 12.26 8.66 16 9 C16 9.33 16 9.66 16 10 C11.38 10.33 6.76 10.66 2 11 C0.22002971 6.55007426 -0.21222719 4.56288469 0 0 Z " fill="#D28EED" transform="translate(252,172)"/>
<path d="M0 0 C0.33 0 0.66 0 1 0 C1.17015625 0.60328125 1.3403125 1.2065625 1.515625 1.828125 C2.96189671 6.59774447 4.13127043 9.66488831 8 13 C8 13.66 8 14.32 8 15 C8.99 14.67 9.98 14.34 11 14 C10.67 15.32 10.34 16.64 10 18 C8.0625 17.25 8.0625 17.25 6 16 C5.25 13.875 5.25 13.875 5 12 C4.0409375 11.8453125 4.0409375 11.8453125 3.0625 11.6875 C2.381875 11.460625 1.70125 11.23375 1 11 C-0.28317892 7.15046324 -0.06643637 4.05261865 0 0 Z " fill="#41DBA8" transform="translate(216,94)"/>
<path d="M0 0 C2.96052484 3.36423277 3.92289822 6.69159287 5 11 C3.68 12.32 2.36 13.64 1 15 C0.7834375 13.453125 0.7834375 13.453125 0.5625 11.875 C0.21365922 9.47187464 -0.17477179 7.07370953 -0.625 4.6875 C-1 2 -1 2 0 0 Z " fill="#E7A8B1" transform="translate(247,176)"/>
<path d="M0 0 C3.11373372 1.49920512 6.12228205 3.08152136 9 5 C9 5.66 9 6.32 9 7 C7.68 7 6.36 7 5 7 C5 7.66 5 8.32 5 9 C4.34 9 3.68 9 3 9 C0.56839395 5.63316085 0 4.26649636 0 0 Z " fill="#F125FB" transform="translate(139,167)"/>
<path d="M0 0 C0.99 0.33 1.98 0.66 3 1 C1.89966185 2.60679516 0.79457336 4.21033793 -0.3125 5.8125 C-0.92738281 6.70582031 -1.54226562 7.59914063 -2.17578125 8.51953125 C-3.68543988 10.57227907 -5.05615225 12.36106954 -7 14 C-7.66 14 -8.32 14 -9 14 C-9 12.35 -9 10.7 -9 9 C-7.68 9 -6.36 9 -5 9 C-3.79371992 6.66785852 -2.8345262 4.50357861 -2 2 C-1.34 2 -0.68 2 0 2 C0 1.34 0 0.68 0 0 Z " fill="#1BCEB4" transform="translate(233,95)"/>
<path d="M0 0 C0.33 0 0.66 0 1 0 C1.22537111 3.12401779 1.42738648 6.24911333 1.625 9.375 C1.68945312 10.26445312 1.75390625 11.15390625 1.8203125 12.0703125 C1.871875 12.92109375 1.9234375 13.771875 1.9765625 14.6484375 C2.02893066 15.43395996 2.08129883 16.21948242 2.13525391 17.02880859 C2 19 2 19 0 21 C-1.10977901 17.67066298 -1.13301537 15.12771692 -1.125 11.625 C-1.12757813 10.50351563 -1.13015625 9.38203125 -1.1328125 8.2265625 C-1.01470948 5.35735378 -0.65782328 2.78791771 0 0 Z " fill="#E1B16D" transform="translate(210,184)"/>
<path d="M0 0 C1.98 1.65 3.96 3.3 6 5 C4.71034824 6.37562854 3.37310707 7.70766393 2 9 C1.34 9 0.68 9 0 9 C-0.66 10.32 -1.32 11.64 -2 13 C-2.99 13 -3.98 13 -5 13 C-5.33 12.01 -5.66 11.02 -6 10 C-4.35 10 -2.7 10 -1 10 C-1 9.01 -1 8.02 -1 7 C-0.01 6.34 0.98 5.68 2 5 C1.34 3.35 0.68 1.7 0 0 Z " fill="#9E57E6" transform="translate(174,179)"/>
<path d="M0 0 C2.97 0.495 2.97 0.495 6 1 C6 1.99 6 2.98 6 4 C10.455 4.99 10.455 4.99 15 6 C15 6.33 15 6.66 15 7 C9.77825222 7.31330487 6.42308959 6.88015136 2 4 C0.625 1.8125 0.625 1.8125 0 0 Z " fill="#D337FC" transform="translate(141,166)"/>
<path d="M0 0 C2.4375 0.8125 2.4375 0.8125 5 2 C5.33 2.99 5.66 3.98 6 5 C8.31 4.34 10.62 3.68 13 3 C12.34 4.98 11.68 6.96 11 9 C7.40303663 8.42703238 5.74677205 7.10347171 3.25 4.5 C2.63640625 3.8709375 2.0228125 3.241875 1.390625 2.59375 C0 1 0 1 0 0 Z " fill="#2AB8D1" transform="translate(171,193)"/>
<path d="M0 0 C0.93616694 2.52481387 1.17818983 3.59474972 0.07421875 6.10546875 C-0.38339844 6.79253906 -0.84101563 7.47960937 -1.3125 8.1875 C-1.76238281 8.88230469 -2.21226562 9.57710937 -2.67578125 10.29296875 C-4 12 -4 12 -6 13 C-5.54177532 9.53058454 -5.10868317 6.32604951 -4 3 C-3.01 2.67 -2.02 2.34 -1 2 C-0.67 1.34 -0.34 0.68 0 0 Z " fill="#EABD66" transform="translate(218,157)"/>
<path d="M0 0 C2.97 0.495 2.97 0.495 6 1 C6 5.62 6 10.24 6 15 C5.67 15 5.34 15 5 15 C4.87625 13.906875 4.7525 12.81375 4.625 11.6875 C4.24535199 7.92618198 4.24535199 7.92618198 2 5 C2 4.01 2 3.02 2 2 C1.34 2 0.68 2 0 2 C0 1.34 0 0.68 0 0 Z " fill="#DED483" transform="translate(216,151)"/>
<path d="M0 0 C0.66 0 1.32 0 2 0 C2 4.29 2 8.58 2 13 C1.01 13.495 1.01 13.495 0 14 C0 12.35 0 10.7 0 9 C-0.66 9 -1.32 9 -2 9 C-2 7.35 -2 5.7 -2 4 C-1.34 4 -0.68 4 0 4 C0 2.68 0 1.36 0 0 Z " fill="#8D66FC" transform="translate(189,120)"/>
<path d="M0 0 C0.99 0 1.98 0 3 0 C3.33 1.32 3.66 2.64 4 4 C4.66 4 5.32 4 6 4 C5.67 4.99 5.34 5.98 5 7 C5 7.99 5 8.98 5 10 C2.03 7.36 -0.94 4.72 -4 2 C-3.34 1.67 -2.68 1.34 -2 1 C-1.34 1.33 -0.68 1.66 0 2 C0 1.34 0 0.68 0 0 Z " fill="#18C8C6" transform="translate(290,88)"/>
<path d="M0 0 C0 0.66 0 1.32 0 2 C-3.86790352 4.57860235 -6.76613915 4.01114505 -11.1875 3.625 C-11.93708984 3.56828125 -12.68667969 3.5115625 -13.45898438 3.453125 C-15.30676559 3.31189331 -17.153512 3.15723833 -19 3 C-19 2.67 -19 2.34 -19 2 C-16.39610703 1.66440045 -13.7919239 1.33143142 -11.1875 1 C-10.44951172 0.90460938 -9.71152344 0.80921875 -8.95117188 0.7109375 C-5.94569605 0.33015323 -3.03285559 0 0 0 Z " fill="#7064D0" transform="translate(279,163)"/>
<path d="M0 0 C1.03115279 3.26913624 0.9638984 5.86041348 0.5625 9.25 C0.46066406 10.14203125 0.35882813 11.0340625 0.25390625 11.953125 C0.17011719 12.62859375 0.08632812 13.3040625 0 14 C-0.598125 13.54625 -1.19625 13.0925 -1.8125 12.625 C-3.50590652 11.36704087 -5.24477086 10.17015276 -7 9 C-6.21625 8.62875 -5.4325 8.2575 -4.625 7.875 C-1.39371171 5.56693694 -0.92493788 3.78383679 0 0 Z " fill="#6BD7CE" transform="translate(224,114)"/>
<path d="M0 0 C0 0.66 0 1.32 0 2 C1.98 2 3.96 2 6 2 C6 2.66 6 3.32 6 4 C4.80375 3.855625 3.6075 3.71125 2.375 3.5625 C-4.06737585 2.8409539 -10.53295884 2.43236264 -17 2 C-17 1.67 -17 1.34 -17 1 C-15.10440036 0.83069605 -13.20850769 0.66467136 -11.3125 0.5 C-10.25675781 0.4071875 -9.20101562 0.314375 -8.11328125 0.21875 C-5.39363975 0.0276585 -2.72460144 -0.04043935 0 0 Z " fill="#002B32" transform="translate(147,65)"/>
<path d="M0 0 C0.99 0.33 1.98 0.66 3 1 C2.67 1.33 2.34 1.66 2 2 C2.25361783 4.19510603 2.57765908 6.38228739 2.9375 8.5625 C3.13214844 9.76003906 3.32679688 10.95757812 3.52734375 12.19140625 C3.68332031 13.11824219 3.83929688 14.04507813 4 15 C3.34 15 2.68 15 2 15 C1.49528803 13.23050388 0.99639315 11.45934777 0.5 9.6875 C0.2215625 8.70136719 -0.056875 7.71523437 -0.34375 6.69921875 C-1 4 -1 4 -1 1 C-0.67 0.67 -0.34 0.34 0 0 Z " fill="#C6A4DF" transform="translate(249,165)"/>
<path d="M0 0 C0.99 0 1.98 0 3 0 C1.43181728 5.452999 -0.03810217 9.76486783 -4 14 C-3.21824485 9.15311808 -1.60155722 4.6233633 0 0 Z " fill="#5982E1" transform="translate(316,143)"/>
<path d="M0 0 C0 3 0 3 -0.6875 5.8125 C-1.07751725 9.79067592 -0.09951995 11.65632009 2 15 C2.66 15.33 3.32 15.66 4 16 C3.67 16.99 3.34 17.98 3 19 C-1.26829974 15.517966 -2.98683304 12.60652711 -3.99609375 7.16015625 C-4 5 -4 5 -2.125 1.9375 C-1.42375 1.298125 -0.7225 0.65875 0 0 Z " fill="#1CD995" transform="translate(220,88)"/>
<path d="M0 0 C2.875 0.625 2.875 0.625 6 2 C8.00680712 6.01361424 8.21136066 9.56142612 8 14 C5.78050983 11.47785208 4.92401898 9.72931763 4 6.4375 C3.06522556 3.22421285 2.57505425 1.98981465 0 0 Z " fill="#CDD068" transform="translate(112,159)"/>
<path d="M0 0 C0.99 0.33 1.98 0.66 3 1 C3 1.66 3 2.32 3 3 C3.66 3 4.32 3 5 3 C5.4125 3.61875 5.825 4.2375 6.25 4.875 C8.51154594 7.62116292 10.62074896 8.09886639 14 9 C14 9.99 14 10.98 14 12 C13.01 11.67 12.02 11.34 11 11 C11 10.34 11 9.68 11 9 C10.278125 8.896875 9.55625 8.79375 8.8125 8.6875 C5.64392411 7.91295923 3.57763256 7.00482532 1 5 C0.1875 2.3125 0.1875 2.3125 0 0 Z " fill="#92D4C0" transform="translate(208,136)"/>
<path d="M0 0 C0.66 1.32 1.32 2.64 2 4 C1.360625 4.4125 0.72125 4.825 0.0625 5.25 C-2.28272484 7.23988774 -2.32996702 8.12843008 -3 11 C-3.99 11.33 -4.98 11.66 -6 12 C-6 10.35 -6 8.7 -6 7 C-5.34 7 -4.68 7 -4 7 C-3.896875 6.401875 -3.79375 5.80375 -3.6875 5.1875 C-2.91123545 2.71756736 -1.92911079 1.67748765 0 0 Z " fill="#3C91FD" transform="translate(183,113)"/>
<path d="M0 0 C1 3 1 3 -0.4375 6.1875 C-1.2109375 7.5796875 -1.2109375 7.5796875 -2 9 C-2.66 9 -3.32 9 -4 9 C-4.2165625 9.928125 -4.2165625 9.928125 -4.4375 10.875 C-5 13 -5 13 -6 15 C-6.66 15 -7.32 15 -8 15 C-6.62712658 11.30123909 -4.93644547 8.0485524 -2.875 4.6875 C-2.33617187 3.80449219 -1.79734375 2.92148438 -1.2421875 2.01171875 C-0.83226562 1.34785156 -0.42234375 0.68398437 0 0 Z " fill="#0F1707" transform="translate(241,204)"/>
<path d="M0 0 C0.515625 0.268125 1.03125 0.53625 1.5625 0.8125 C4.66401415 2.32349407 7.82262806 3.65572726 11 5 C11 7.97 11 10.94 11 14 C10.67 14 10.34 14 10 14 C9.814375 12.9275 9.62875 11.855 9.4375 10.75 C8.77642549 8.33902237 8.36019592 7.27184598 6.34375 5.75 C4.56975127 4.81937771 2.78524893 3.908854 1 3 C0.67 2.01 0.34 1.02 0 0 Z " fill="#74B7C4" transform="translate(84,114)"/>
<path d="M0 0 C0.99 0.33 1.98 0.66 3 1 C4.26264601 5.29299643 3.62950412 7.87831311 2 12 C0 10 0 10 -0.1953125 7.6171875 C-0.17210937 6.71226562 -0.14890625 5.80734375 -0.125 4.875 C-0.10695312 3.96492187 -0.08890625 3.05484375 -0.0703125 2.1171875 C-0.04710937 1.41851562 -0.02390625 0.71984375 0 0 Z " fill="#CCC360" transform="translate(209,202)"/>
<path d="M0 0 C2.44897847 3.67346771 2.31537716 5.66356399 2 10 C1.34 10.66 0.68 11.32 0 12 C-0.99 13.485 -0.99 13.485 -2 15 C-2.66 13.35 -3.32 11.7 -4 10 C-3.01 9.34 -2.02 8.68 -1 8 C-0.42251197 6.03638136 -0.42251197 6.03638136 -0.3125 3.875 C-0.209375 2.59625 -0.10625 1.3175 0 0 Z " fill="#F18F9A" transform="translate(87,139)"/>
<path d="M0 0 C0.33 0 0.66 0 1 0 C1.33 3.3 1.66 6.6 2 10 C1.01 10.33 0.02 10.66 -1 11 C-2.1875 8.3125 -2.1875 8.3125 -3 5 C-1.6875 2.125 -1.6875 2.125 0 0 Z " fill="#6FD583" transform="translate(215,95)"/>
<path d="M0 0 C3.36997254 1.4615836 5.60745127 3.3380888 8.1875 5.9375 C9.22970703 6.97197266 9.22970703 6.97197266 10.29296875 8.02734375 C12 10 12 10 13 13 C12.01 12.67 11.02 12.34 10 12 C10 11.34 10 10.68 10 10 C9.01 9.67 8.02 9.34 7 9 C5.64613064 7.34997172 4.31321858 5.6825613 3 4 C2.01 3.34 1.02 2.68 0 2 C0 1.34 0 0.68 0 0 Z " fill="#22C8CA" transform="translate(299,79)"/>
<path d="M0 0 C0.33 0 0.66 0 1 0 C1 3.3 1 6.6 1 10 C0.34 10 -0.32 10 -1 10 C-1.33 10.99 -1.66 11.98 -2 13 C-2.33 13 -2.66 13 -3 13 C-3.125 9.625 -3.125 9.625 -3 6 C-2.34 5.34 -1.68 4.68 -1 4 C-0.3574765 1.93125966 -0.3574765 1.93125966 0 0 Z " fill="#8BC9AC" transform="translate(191,182)"/>
<path d="M0 0 C0.33 0 0.66 0 1 0 C0.67 3.3 0.34 6.6 0 10 C-1.98 10.33 -3.96 10.66 -6 11 C-5 8 -5 8 -3 6 C-2.67 5.01 -2.34 4.02 -2 3 C-1.34 3 -0.68 3 0 3 C0 2.01 0 1.02 0 0 Z " fill="#4591ED" transform="translate(320,133)"/>
<path d="M0 0 C2.1385485 2.1385485 2.42655063 3.13275314 3 6 C3.33 5.34 3.66 4.68 4 4 C4.66 4.33 5.32 4.66 6 5 C4.68 6.98 3.36 8.96 2 11 C1.34 10.67 0.68 10.34 0 10 C0 6.7 0 3.4 0 0 Z " fill="#262B02" transform="translate(219,202)"/>
<path d="M0 0 C0.33 0 0.66 0 1 0 C1.33 4.62 1.66 9.24 2 14 C1.01 14 0.02 14 -1 14 C-1.66 13.34 -2.32 12.68 -3 12 C-2.690625 11.505 -2.38125 11.01 -2.0625 10.5 C-0.58355618 7.02013219 -0.37597149 3.75971491 0 0 Z " fill="#D2CA4B" transform="translate(215,192)"/>
<path d="M0 0 C0.33 0 0.66 0 1 0 C1.061875 0.928125 1.12375 1.85625 1.1875 2.8125 C1.68827104 6.1890663 1.68827104 6.1890663 4.5625 7.875 C5.366875 8.24625 6.17125 8.6175 7 9 C6.67 9.66 6.34 10.32 6 11 C3.69 10.34 1.38 9.68 -1 9 C-0.67 6.03 -0.34 3.06 0 0 Z " fill="#84DBB4" transform="translate(209,110)"/>
<path d="M0 0 C0 0.99 0 1.98 0 3 C-0.99 3.495 -0.99 3.495 -2 4 C-2.40729228 6.32156597 -2.74438677 8.6568787 -3 11 C-3.66 11 -4.32 11 -5 11 C-5 7.7 -5 4.4 -5 1 C-3.35 0.67 -1.7 0.34 0 0 Z " fill="#B5D82B" transform="translate(222,211)"/>
<path d="M0 0 C1.32 0 2.64 0 4 0 C6.56687367 3.8503105 5.83288724 5.58569763 5 10 C3.68 10.33 2.36 10.66 1 11 C1.66 10.34 2.32 9.68 3 9 C2.76135558 3.96494948 2.76135558 3.96494948 0 0 Z " fill="#CE28FB" transform="translate(166,178)"/>
<path d="M0 0 C1.7074998 1.28062485 3.37373596 2.61767557 5 4 C5 4.66 5 5.32 5 6 C4.34 6 3.68 6 3 6 C2.67 7.98 2.34 9.96 2 12 C1.01 11.34 0.02 10.68 -1 10 C-0.67 6.7 -0.34 3.4 0 0 Z " fill="#66CFAC" transform="translate(221,108)"/>
<path d="M0 0 C3 2 3 2 3.6875 5.125 C3.790625 6.07375 3.89375 7.0225 4 8 C2.35 8.33 0.7 8.66 -1 9 C-1.33 8.34 -1.66 7.68 -2 7 C-1.01 6.67 -0.02 6.34 1 6 C0.67 5.67 0.34 5.34 0 5 C-0.04063832 3.33382885 -0.042721 1.66611905 0 0 Z " fill="#C9B394" transform="translate(124,173)"/>
<path d="M0 0 C0.66 0.33 1.32 0.66 2 1 C2 2.98 2 4.96 2 7 C-0.31 6.01 -2.62 5.02 -5 4 C-5 3.34 -5 2.68 -5 2 C-2.625 0.9375 -2.625 0.9375 0 0 Z " fill="#B9DA0F" transform="translate(112,170)"/>
<path d="M0 0 C0.99 0.33 1.98 0.66 3 1 C3 1.66 3 2.32 3 3 C3.31432217 4.71193325 3.65024669 6.41995264 4 8.125 C4.185625 9.03507813 4.37125 9.94515625 4.5625 10.8828125 C4.706875 11.58148438 4.85125 12.28015625 5 13 C2 11 2 11 1.26953125 8.3984375 C1.11871094 7.40070313 0.96789062 6.40296875 0.8125 5.375 C0.65394531 4.37210938 0.49539062 3.36921875 0.33203125 2.3359375 C0.22246094 1.56507813 0.11289063 0.79421875 0 0 Z " fill="#F985BC" transform="translate(128,165)"/>
<path d="M0 0 C5.875 2.75 5.875 2.75 7 5 C7.04022391 7.3329866 7.04320247 9.66706666 7 12 C6.67 12 6.34 12 6 12 C6 10.02 6 8.04 6 6 C4.35 5.67 2.7 5.34 1 5 C0.67 3.35 0.34 1.7 0 0 Z " fill="#C2C5C8" transform="translate(87,118)"/>
<path d="M0 0 C0.33 0.66 0.66 1.32 1 2 C1.66 2 2.32 2 3 2 C3 2.66 3 3.32 3 4 C5.97 4.33 8.94 4.66 12 5 C11.34 5.66 10.68 6.32 10 7 C6.04407344 6.68603757 2.75516546 6.25172182 -1 5 C-0.67 3.35 -0.34 1.7 0 0 Z " fill="#69D7B5" transform="translate(82,101)"/>
<path d="M0 0 C1.65 0 3.3 0 5 0 C3.68 2.64 2.36 5.28 1 8 C0.01 7.67 -0.98 7.34 -2 7 C-1.34 4.69 -0.68 2.38 0 0 Z " fill="#0A130D" transform="translate(82,93)"/>
<path d="M0 0 C4.0081803 3.67416528 6.52591615 7.14346504 9 12 C9 12.66 9 13.32 9 14 C8.01 14 7.02 14 6 14 C5.7525 13.13375 5.505 12.2675 5.25 11.375 C3.93300445 7.81911201 2.12734288 5.12010289 0 2 C0 1.34 0 0.68 0 0 Z " fill="#1DADCF" transform="translate(179,88)"/>
<path d="M0 0 C2.35419902 3.53129854 3.66321571 6.98964713 5 11 C3.0625 11.5625 3.0625 11.5625 1 12 C0 11 0 11 -0.09765625 8.49609375 C-0.08605469 7.48675781 -0.07445312 6.47742188 -0.0625 5.4375 C-0.05347656 4.42558594 -0.04445312 3.41367188 -0.03515625 2.37109375 C-0.02355469 1.58863281 -0.01195312 0.80617187 0 0 Z " fill="#CDCF4F" transform="translate(238,188)"/>
<path d="M0 0 C0.66 0.33 1.32 0.66 2 1 C-0.46153846 7.64615385 -0.46153846 7.64615385 -3.1875 9.4375 C-4.0846875 9.7159375 -4.0846875 9.7159375 -5 10 C-4.47731534 7.23723823 -3.89130413 4.6739124 -3 2 C-2.01 1.34 -1.02 0.68 0 0 Z " fill="#0AC6C5" transform="translate(185,188)"/>
<path d="M0 0 C0.33 3.3 0.66 6.6 1 10 C-3 7 -3 7 -3.75 4.3125 C-3.8325 3.549375 -3.915 2.78625 -4 2 C-1 0 -1 0 0 0 Z " fill="#E9B582" transform="translate(94,155)"/>
<path d="M0 0 C1.32 0 2.64 0 4 0 C4.33 0.66 4.66 1.32 5 2 C5.99 2.33 6.98 2.66 8 3 C8 5.64 8 8.28 8 11 C6 7.25 6 7.25 6 5 C5.01 4.67 4.02 4.34 3 4 C3 3.34 3 2.68 3 2 C2.01 1.67 1.02 1.34 0 1 C0 0.67 0 0.34 0 0 Z " fill="#AECCA4" transform="translate(215,145)"/>
<path d="M0 0 C0.99 0.495 0.99 0.495 2 1 C2 1.66 2 2.32 2 3 C2.66 3 3.32 3 4 3 C5.35439668 5.70879335 5.06501451 8.00933268 5 11 C1.92893485 9.46446743 1.32812424 7.07883346 0 4 C0 2.68 0 1.36 0 0 Z " fill="#03DB9C" transform="translate(218,93)"/>
<path d="M0 0 C0.66 0 1.32 0 2 0 C2 2.64 2 5.28 2 8 C0.68 7.67 -0.64 7.34 -2 7 C-1.125 2.25 -1.125 2.25 0 0 Z " fill="#A7B5BE" transform="translate(190,192)"/>
<path d="M0 0 C0.99 0 1.98 0 3 0 C2.34 5.61 1.68 11.22 1 17 C0.67 17 0.34 17 0 17 C0 11.39 0 5.78 0 0 Z " fill="#F4B875" transform="translate(211,160)"/>
<path d="M0 0 C1 2 1 2 0.0625 5.125 C-0.288125 6.07375 -0.63875 7.0225 -1 8 C-1.66 8 -2.32 8 -3 8 C-3.28875 8.804375 -3.5775 9.60875 -3.875 10.4375 C-5 13 -5 13 -7 14 C-5.23570801 9.02790438 -2.6060834 4.56561939 0 0 Z " fill="#BDD330" transform="translate(230,197)"/>
<path d="M0 0 C0.33 1.32 0.66 2.64 1 4 C0.34 4 -0.32 4 -1 4 C-1 4.66 -1 5.32 -1 6 C-0.34 6.33 0.32 6.66 1 7 C-0.62339805 8.70884005 -2.29319053 10.37446717 -4 12 C-4.66 12 -5.32 12 -6 12 C-4 8 -2 4 0 0 Z " fill="#278DE8" transform="translate(300,144)"/>
<path d="M0 0 C0.99 0 1.98 0 3 0 C3 0.99 3 1.98 3 3 C3.66 3 4.32 3 5 3 C6.10844919 6.32534757 5.84454356 8.62182575 5 12 C2.98340964 8.11086145 1.38495805 4.15487415 0 0 Z " fill="#E8A5AC" transform="translate(85,120)"/>
<path d="M0 0 C0.33 0.66 0.66 1.32 1 2 C3.34386809 2.91031272 3.34386809 2.91031272 6.0625 3.625 C6.98160156 3.88539062 7.90070313 4.14578125 8.84765625 4.4140625 C9.55792969 4.60742188 10.26820313 4.80078125 11 5 C11 5.33 11 5.66 11 6 C7.37 5.67 3.74 5.34 0 5 C0 3.35 0 1.7 0 0 Z " fill="#54DCC8" transform="translate(209,119)"/>
<path d="M0 0 C1.32 0.66 2.64 1.32 4 2 C4 2.99 4 3.98 4 5 C2.68 5 1.36 5 0 5 C-0.99 5.33 -1.98 5.66 -3 6 C-1.125 1.125 -1.125 1.125 0 0 Z " fill="#9CDC61" transform="translate(90,91)"/>
<path d="M0 0 C0 0.33 0 0.66 0 1 C-0.78375 1.12375 -1.5675 1.2475 -2.375 1.375 C-5.14057822 1.79117993 -5.14057822 1.79117993 -7 4 C-10.625 3.625 -10.625 3.625 -14 3 C-10.07503936 -0.92496064 -5.24412188 -0.08740203 0 0 Z " fill="#022131" transform="translate(134,84)"/>
<path d="M0 0 C2.97 0 5.94 0 9 0 C8.67 0.66 8.34 1.32 8 2 C5.67843403 2.40729228 3.3431213 2.74438677 1 3 C1 4.65 1 6.3 1 8 C0.67 8 0.34 8 0 8 C0 5.36 0 2.72 0 0 Z " fill="#6EE371" transform="translate(208,236)"/>
<path d="M0 0 C1 3 1 3 0.00390625 5.26171875 C-0.47175781 6.06222656 -0.94742188 6.86273438 -1.4375 7.6875 C-1.91058594 8.49574219 -2.38367188 9.30398437 -2.87109375 10.13671875 C-3.24363281 10.75160156 -3.61617187 11.36648437 -4 12 C-4.33 12 -4.66 12 -5 12 C-5 10.35 -5 8.7 -5 7 C-4.34 7 -3.68 7 -3 7 C-2.690625 6.030625 -2.38125 5.06125 -2.0625 4.0625 C-1 1 -1 1 0 0 Z " fill="#180F13" transform="translate(244,169)"/>
<path d="M0 0 C3.96 1.98 3.96 1.98 8 4 C7.67 4.66 7.34 5.32 7 6 C4.9375 6.625 4.9375 6.625 3 7 C3 6.34 3 5.68 3 5 C2.34 5 1.68 5 1 5 C0.67 3.35 0.34 1.7 0 0 Z " fill="#64D78B" transform="translate(96,93)"/>
<path d="M0 0 C7.75 1.875 7.75 1.875 10 3 C9.67 3.99 9.34 4.98 9 6 C5.88802644 4.50164236 2.91164984 2.86022073 0 1 C0 0.67 0 0.34 0 0 Z " fill="#011C2D" transform="translate(292,73)"/>
<path d="M0 0 C2.92879371 0.62759865 5.36095629 1.58622659 8 3 C6.68 3 5.36 3 4 3 C4 3.99 4 4.98 4 6 C3.34 6 2.68 6 2 6 C0 3 0 3 0 0 Z " fill="#F00CEE" transform="translate(144,174)"/>
<path d="M0 0 C0.33 1.98 0.66 3.96 1 6 C0.01 5.67 -0.98 5.34 -2 5 C-2 4.01 -2 3.02 -2 2 C-3.98 2 -5.96 2 -8 2 C-4.77208445 -0.1519437 -3.71599191 -0.20086443 0 0 Z " fill="#A54CEF" transform="translate(152,163)"/>
<path d="M0 0 C0.99 0 1.98 0 3 0 C2.690625 0.9075 2.38125 1.815 2.0625 2.75 C0.99790257 5.81779483 0.99790257 5.81779483 0.5 8.3125 C0.335 8.869375 0.17 9.42625 0 10 C-0.99 10.495 -0.99 10.495 -2 11 C-2 9.02 -2 7.04 -2 5 C-1.34 5 -0.68 5 0 5 C0 3.35 0 1.7 0 0 Z " fill="#04AAF0" transform="translate(307,127)"/>
<path d="M0 0 C3 1 3 1 4.8125 3.8125 C5.204375 4.864375 5.59625 5.91625 6 7 C5.34 8.32 4.68 9.64 4 11 C2.68 7.37 1.36 3.74 0 0 Z " fill="#02102C" transform="translate(186,97)"/>
<path d="M0 0 C0.33 0.66 0.66 1.32 1 2 C0.01 2.495 0.01 2.495 -1 3 C-1.72159424 4.64363134 -2.39351421 6.31050386 -3 8 C-4.32 7.34 -5.64 6.68 -7 6 C-2.25 1.125 -2.25 1.125 0 0 Z " fill="#18C7C1" transform="translate(108,73)"/>
<path d="M0 0 C9.59453303 2.89066059 9.59453303 2.89066059 13 6 C6.25 5.25 6.25 5.25 4 3 C1.93125966 2.3574765 1.93125966 2.3574765 0 2 C0 1.34 0 0.68 0 0 Z " fill="#21CAC3" transform="translate(151,69)"/>
<path d="M0 0 C1.33332095 2.6666419 0.67102033 4.16680303 0 7 C-0.66 7 -1.32 7 -2 7 C-2.33 8.32 -2.66 9.64 -3 11 C-4 9 -4 9 -3.1875 5.5 C-2 2 -2 2 0 0 Z " fill="#50C5C0" transform="translate(187,188)"/>
<path d="M0 0 C0.66 0.33 1.32 0.66 2 1 C1.375 2.9375 1.375 2.9375 0 5 C-3.125 5.75 -3.125 5.75 -6 6 C-6 5.34 -6 4.68 -6 4 C-4.36368108 2.95107762 -2.69514137 1.95093297 -1 1 C-0.67 0.67 -0.34 0.34 0 0 Z " fill="#05B6E6" transform="translate(179,188)"/>
<path d="M0 0 C0 0.99 0 1.98 0 3 C-3.15830185 6.06806466 -5.61999924 7.49942848 -10 8 C-6.97727468 4.74475735 -3.74281699 2.38179263 0 0 Z " fill="#3B96F2" transform="translate(181,185)"/>
<path d="M0 0 C1.2065625 0.0309375 1.2065625 0.0309375 2.4375 0.0625 C2.1075 2.0425 1.7775 4.0225 1.4375 6.0625 C-0.5 5.25 -0.5 5.25 -2.5625 4.0625 C-2.8925 3.0725 -3.2225 2.0825 -3.5625 1.0625 C-2.5625 0.0625 -2.5625 0.0625 0 0 Z " fill="#E1BC9E" transform="translate(244.5625,175.9375)"/>
<path d="M0 0 C2 3.75 2 3.75 2 6 C2.99 6.33 3.98 6.66 5 7 C2.36 6.67 -0.28 6.34 -3 6 C-3 5.01 -3 4.02 -3 3 C-2.01 3 -1.02 3 0 3 C0 2.01 0 1.02 0 0 Z " fill="#F668D0" transform="translate(139,175)"/>
<path d="M0 0 C3.3 0.33 6.6 0.66 10 1 C10 1.33 10 1.66 10 2 C7.03 2.66 4.06 3.32 1 4 C0.67 2.68 0.34 1.36 0 0 Z " fill="#A095E3" transform="translate(250,164)"/>
<path d="M0 0 C2.64 0.99 5.28 1.98 8 3 C8 3.99 8 4.98 8 6 C5.69 5.34 3.38 4.68 1 4 C0.67 2.68 0.34 1.36 0 0 Z " fill="#39E0DD" transform="translate(208,133)"/>
<path d="M0 0 C-0.99 1.485 -0.99 1.485 -2 3 C-4.625 3.1875 -4.625 3.1875 -7 3 C-7 2.01 -7 1.02 -7 0 C-3.98968256 -0.93423645 -3.13349732 -1.04449911 0 0 Z " fill="#09E07C" transform="translate(216,245)"/>
<path d="M0 0 C0.99 0.495 0.99 0.495 2 1 C2 1.66 2 2.32 2 3 C2.66 3 3.32 3 4 3 C4.33 4.32 4.66 5.64 5 7 C4.01 7.33 3.02 7.66 2 8 C0.74335022 5.09399739 0 3.20395416 0 0 Z " fill="#E29ECC" transform="translate(249,177)"/>
<path d="M0 0 C2.0625 1.75 2.0625 1.75 4 4 C3.75 6.25 3.75 6.25 3 8 C3 7.01 3 6.02 3 5 C1.35 5 -0.3 5 -2 5 C-1.34 3.35 -0.68 1.7 0 0 Z " fill="#D7B4C3" transform="translate(245,171)"/>
<path d="M0 0 C0.33 0 0.66 0 1 0 C1.53190541 1.43344 2.05015258 2.87195367 2.5625 4.3125 C2.85253906 5.11300781 3.14257812 5.91351563 3.44140625 6.73828125 C4 9 4 9 3 12 C1 11 1 11 0 8 C-0.12781786 5.32605036 -0.04391871 2.67904143 0 0 Z " fill="#4BE08D" transform="translate(216,94)"/>
<path d="M0 0 C0 3.21534057 -0.26476072 4.35582586 -2 7 C-4.625 8.75 -4.625 8.75 -7 10 C-5.6062718 5.56541027 -3.39417765 3.12621626 0 0 Z " fill="#002531" transform="translate(238,93)"/>
<path d="M0 0 C0.33 1.32 0.66 2.64 1 4 C0.01 5.485 0.01 5.485 -1 7 C-1.66 7 -2.32 7 -3 7 C-3 7.66 -3 8.32 -3 9 C-3.66 8.67 -4.32 8.34 -5 8 C-3.35 5.36 -1.7 2.72 0 0 Z " fill="#01200E" transform="translate(219,241)"/>
<path d="M0 0 C0.33 0 0.66 0 1 0 C1 3.3 1 6.6 1 10 C0.01 10 -0.98 10 -2 10 C-1.34 6.7 -0.68 3.4 0 0 Z " fill="#BECF3B" transform="translate(217,202)"/>
<path d="M0 0 C0.99 0 1.98 0 3 0 C2.67 1.65 2.34 3.3 2 5 C1.01 5.33 0.02 5.66 -1 6 C-1.042721 4.33388095 -1.04063832 2.66617115 -1 1 C-0.67 0.67 -0.34 0.34 0 0 Z " fill="#C3D065" transform="translate(240,199)"/>
<path d="M0 0 C1 3 1 3 0.375 5.125 C-1 7 -1 7 -3.625 7.75 C-4.800625 7.87375 -4.800625 7.87375 -6 8 C-4.02 5.36 -2.04 2.72 0 0 Z " fill="#0C0F38" transform="translate(312,157)"/>
<path d="M0 0 C0.33 0 0.66 0 1 0 C1.390625 5.859375 1.390625 5.859375 1 8 C-0.32 9.32 -1.64 10.64 -3 12 C-2.01 8.04 -1.02 4.08 0 0 Z " fill="#1991CA" transform="translate(304,132)"/>
<path d="M0 0 C1.32 0 2.64 0 4 0 C4 3.96 4 7.92 4 12 C3.67 12 3.34 12 3 12 C2.92652344 11.04287109 2.92652344 11.04287109 2.8515625 10.06640625 C2.77679688 9.24011719 2.70203125 8.41382813 2.625 7.5625 C2.55539063 6.73878906 2.48578125 5.91507813 2.4140625 5.06640625 C2.27742187 4.38449219 2.14078125 3.70257813 2 3 C1.34 2.67 0.68 2.34 0 2 C0 1.34 0 0.68 0 0 Z " fill="#3FCBD6" transform="translate(220,128)"/>
<path d="M0 0 C2.64 0 5.28 0 8 0 C8.33 0.66 8.66 1.32 9 2 C6.1875 2.6875 6.1875 2.6875 3 3 C1.125 1.5625 1.125 1.5625 0 0 Z " fill="#33DFDA" transform="translate(210,126)"/>
<path d="M0 0 C0.66 0.33 1.32 0.66 2 1 C2 3.31 2 5.62 2 8 C1.01 8.33 0.02 8.66 -1 9 C-0.67 6.03 -0.34 3.06 0 0 Z " fill="#7C8CED" transform="translate(189,107)"/>
<path d="M0 0 C0.99 0.33 1.98 0.66 3 1 C3 2.65 3 4.3 3 6 C2.01 6 1.02 6 0 6 C0 4.02 0 2.04 0 0 Z " fill="#6DDA95" transform="translate(218,105)"/>
<path d="M0 0 C0.99 0.33 1.98 0.66 3 1 C3 2.98 3 4.96 3 7 C2.01 7 1.02 7 0 7 C-1.125 2.25 -1.125 2.25 0 0 Z " fill="#7BDC89" transform="translate(215,104)"/>
<path d="M0 0 C0 0.99 0 1.98 0 3 C-1.65 3.66 -3.3 4.32 -5 5 C-5.33 4.01 -5.66 3.02 -6 2 C-4.02 1.34 -2.04 0.68 0 0 Z " fill="#A8DE3A" transform="translate(230,220)"/>
<path d="M0 0 C2 3 2 3 1.625 6.1875 C1.41875 7.115625 1.2125 8.04375 1 9 C-1.14809171 5.77786243 -1.29386153 4.72224599 -1 1 C-0.67 0.67 -0.34 0.34 0 0 Z " fill="#DBB968" transform="translate(210,196)"/>
<path d="M0 0 C1.65 0 3.3 0 5 0 C5.66 1.98 6.32 3.96 7 6 C5.68 5.67 4.36 5.34 3 5 C3 4.01 3 3.02 3 2 C2.01 1.67 1.02 1.34 0 1 C0 0.67 0 0.34 0 0 Z " fill="#C142FB" transform="translate(144,165)"/>
<path d="M0 0 C2.97 0.495 2.97 0.495 6 1 C6 1.99 6 2.98 6 4 C3.03 3.505 3.03 3.505 0 3 C0 2.01 0 1.02 0 0 Z " fill="#0EDCE0" transform="translate(88,113)"/>
<path d="M0 0 C0.99 0 1.98 0 3 0 C3 2.64 3 5.28 3 8 C1 5 1 5 1 3 C0.34 3 -0.32 3 -1 3 C-0.67 2.01 -0.34 1.02 0 0 Z " fill="#0CD5AF" transform="translate(99,79)"/>
<path d="M0 0 C0.99 0.33 1.98 0.66 3 1 C3 1.99 3 2.98 3 4 C1.125 4.625 1.125 4.625 -1 5 C-1.66 4.34 -2.32 3.68 -3 3 C-2.01 2.67 -1.02 2.34 0 2 C0 1.34 0 0.68 0 0 Z " fill="#A7C756" transform="translate(117,175)"/>
<path d="M0 0 C0.99 0.33 1.98 0.66 3 1 C3 3.64 3 6.28 3 9 C0.87491756 5.81237635 0.4979837 3.73487777 0 0 Z " fill="#DABC81" transform="translate(121,167)"/>
<path d="M0 0 C1.32 0 2.64 0 4 0 C4.33 1.98 4.66 3.96 5 6 C4.01 5.67 3.02 5.34 2 5 C0.8125 2.4375 0.8125 2.4375 0 0 Z " fill="#F463E0" transform="translate(132,166)"/>
<path d="M0 0 C1.74834267 2.622514 2.51529754 3.99484478 3 7 C2.67 7.66 2.34 8.32 2 9 C1.34 9 0.68 9 0 9 C0 6.03 0 3.06 0 0 Z " fill="#13B1C6" transform="translate(317,101)"/>
<path d="M0 0 C2 3 2 3 1.75 5 C1 7 1 7 -1 10 C-1.02689216 8.52093108 -1.04634621 7.04172517 -1.0625 5.5625 C-1.07410156 4.73878906 -1.08570313 3.91507812 -1.09765625 3.06640625 C-1 1 -1 1 0 0 Z " fill="#8DDB82" transform="translate(212,102)"/>
</svg>
